<svg xmlns="http://www.w3.org/2000/svg" width="586" height="586" fill="none" viewBox="0 0 586 586"><g filter="url(#a)"><circle cx="293" cy="293" r="253" fill="#fff"/></g><g filter="url(#b)"><path fill="#0a92df" d="M511.115 292.419H342.016c-.087-18.002-9.879-33.71-24.415-42.161l-.04-.021L402.1 103.835l.028-.05c65.117 37.679 108.938 107.816 108.987 188.634"/><path fill="#0992e0" d="M510.595 292.418v.165c0 80.509-43.382 150.854-108.299 188.613l-.201.118-84.275-146.37.045-.025c14.456-8.527 24.151-24.258 24.151-42.254l-.002-.247z"/><path fill="#18a5f6" d="M402.359 481.297c-32.121 18.639-69.439 29.362-109.251 29.362-39.715 0-76.95-10.657-109.02-29.212l84.438-146.303c7.202 4.16 15.561 6.54 24.476 6.54a48.8 48.8 0 0 0 24.823-6.74l.045-.026 84.43 146.277z"/><path fill="#23afff" d="m268.501 335.133-84.523 146.282C118.823 443.717 74.883 373.302 74.883 292.616v-.198h169.099q-.003.124-.002.247c0 18.149 9.862 33.996 24.521 42.468"/><path fill="#3eb8fe" d="M268.821 250.023q-.015.006-.03.016c-14.751 8.392-24.719 24.22-24.807 42.385H75.1c.047-80.818 43.971-151.156 109.215-188.799l.043.075z"/><path fill="#1989c9" d="M402.127 103.854 317.6 250.261l-.041-.021c-7.22-4.19-15.61-6.59-24.561-6.59-8.793 0-17.043 2.315-24.179 6.371a.1.1 0 0 0-.031.016l-84.476-146.315.043-.024c32.008-18.46 69.145-29.022 108.749-29.022 39.706 0 76.932 10.614 108.994 29.161z"/></g><path fill="#fff" d="M305.259 44.388a2.187 2.187 0 0 1 2.321-2.181c38.251 2.261 75.955 13.344 109.269 32.148a249.4 249.4 0 0 1 52.235 39.311c12.678 12.463 24.062 26.355 33.88 41.339a2.19 2.19 0 0 1-.733 3.095l-152.449 88.017a2.19 2.19 0 0 1-2.745-.466c-10.397-11.979-24.448-20.122-40.075-23.226a2.186 2.186 0 0 1-1.765-2.143z"/><path fill="#0088cf" fill-opacity=".05" d="M307.771 47.068a2.19 2.19 0 0 1 2.344-2.18c36.943 2.59 73.317 13.49 105.499 31.655a247 247 0 0 1 51.708 38.914 248 248 0 0 1 32.056 38.686 2.19 2.19 0 0 1-.718 3.117l-148.364 85.658a2.19 2.19 0 0 1-2.706-.421c-10.148-11.058-23.475-18.78-38.171-22.118a2.19 2.19 0 0 1-1.708-2.131z"/><path fill="#fff" d="M84.117 157.913a2.19 2.19 0 0 1-.729-3.101c21.084-31.996 49.534-59.107 82.476-78.556a249.4 249.4 0 0 1 60.161-25.581 250.6 250.6 0 0 1 52.741-8.671 2.187 2.187 0 0 1 2.314 2.182v176.033a2.185 2.185 0 0 1-1.776 2.144c-15.572 3.015-29.649 11.112-40.151 23.093a2.19 2.19 0 0 1-2.739.457z"/><path fill="#0088cf" fill-opacity=".05" d="M87.693 157.076a2.187 2.187 0 0 1-.715-3.119c20.713-30.7 48.341-56.75 80.163-75.538a247 247 0 0 1 59.555-25.324 248 248 0 0 1 49.531-8.418 2.19 2.19 0 0 1 2.34 2.18v171.317c0 1.026-.716 1.91-1.717 2.133-14.651 3.259-28.002 10.939-38.241 21.998a2.19 2.19 0 0 1-2.7.413z"/><path fill="#fff" d="M71.855 406.189a2.19 2.19 0 0 1-3.05-.919c-17.167-34.257-26.421-72.451-26.793-110.704a249.4 249.4 0 0 1 7.927-64.892 250.6 250.6 0 0 1 18.86-50.011 2.187 2.187 0 0 1 3.047-.913l152.449 88.017a2.185 2.185 0 0 1 .969 2.61c-5.175 14.993-5.202 31.233-.077 46.318a2.19 2.19 0 0 1-.973 2.601z"/><path fill="#0088cf" fill-opacity=".05" d="M72.923 402.673a2.187 2.187 0 0 1-3.06-.94c-16.23-33.288-24.976-70.24-25.336-107.192a247 247 0 0 1 7.847-64.239 248 248 0 0 1 17.476-47.104 2.19 2.19 0 0 1 3.057-.936l148.364 85.658a2.19 2.19 0 0 1 .989 2.554c-4.503 14.317-4.527 29.72-.069 44.116a2.19 2.19 0 0 1-.992 2.545z"/><path fill="#fff" d="M280.74 540.947a2.186 2.186 0 0 1-2.321 2.18c-38.251-2.261-75.955-13.343-109.269-32.147a249.4 249.4 0 0 1-52.235-39.311 250.7 250.7 0 0 1-33.88-41.34 2.19 2.19 0 0 1 .733-3.095l152.448-88.016a2.186 2.186 0 0 1 2.746.466c10.396 11.978 24.448 20.121 40.074 23.225a2.186 2.186 0 0 1 1.765 2.144z"/><path fill="#0088cf" fill-opacity=".05" d="M278.228 538.267a2.19 2.19 0 0 1-2.343 2.18c-36.944-2.589-73.318-13.49-105.499-31.654a247 247 0 0 1-51.709-38.915 248 248 0 0 1-32.056-38.686 2.19 2.19 0 0 1 .718-3.117l148.364-85.658a2.19 2.19 0 0 1 2.706.421c10.149 11.058 23.475 18.78 38.172 22.118a2.19 2.19 0 0 1 1.707 2.132z"/><path fill="#fff" d="M501.882 427.421a2.19 2.19 0 0 1 .728 3.101c-21.084 31.996-49.534 59.107-82.475 78.556a249.4 249.4 0 0 1-60.162 25.581c-17.132 4.748-34.856 7.661-52.741 8.671a2.187 2.187 0 0 1-2.314-2.182V365.115c0-1.049.746-1.945 1.776-2.144 15.572-3.015 29.65-11.112 40.151-23.093a2.19 2.19 0 0 1 2.739-.457z"/><path fill="#0088cf" fill-opacity=".05" d="M498.307 428.262a2.187 2.187 0 0 1 .716 3.119c-20.714 30.7-48.341 56.751-80.163 75.538a246.8 246.8 0 0 1-59.555 25.324 248 248 0 0 1-49.531 8.418 2.19 2.19 0 0 1-2.34-2.18V367.165c0-1.027.715-1.91 1.717-2.133 14.651-3.26 28.002-10.94 38.241-21.998a2.19 2.19 0 0 1 2.7-.414z"/><path fill="#fff" d="M514.144 179.144a2.19 2.19 0 0 1 3.049.92c17.167 34.257 26.421 72.451 26.793 110.704a249.4 249.4 0 0 1-7.926 64.892 250.6 250.6 0 0 1-18.861 50.01 2.19 2.19 0 0 1-3.047.913l-152.449-88.016a2.186 2.186 0 0 1-.969-2.61c5.176-14.994 5.202-31.234.077-46.319a2.19 2.19 0 0 1 .974-2.6z"/><path fill="#0088cf" fill-opacity=".05" d="M513.078 182.664a2.187 2.187 0 0 1 3.059.94c16.229 33.288 24.976 70.24 25.336 107.192a247 247 0 0 1-7.847 64.239 248 248 0 0 1-17.475 47.104 2.19 2.19 0 0 1-3.058.936l-148.364-85.658a2.19 2.19 0 0 1-.989-2.554c4.503-14.317 4.527-29.72.07-44.116a2.19 2.19 0 0 1 .992-2.545z"/><g fill="#0088cf" clip-path="url(#c)"><path d="M407.086 105.269c-.018-.972-.036-1.89-.036-2.778a1.26 1.26 0 0 0-1.26-1.26c-5.389 0-9.492-1.549-12.912-4.874a1.26 1.26 0 0 0-1.757 0c-3.42 3.325-7.522 4.874-12.911 4.874a1.26 1.26 0 0 0-1.26 1.26c0 .888-.018 1.807-.036 2.779-.173 9.045-.409 21.433 14.673 26.661a1.26 1.26 0 0 0 .825 0c15.083-5.228 14.847-17.616 14.674-26.662m-15.087 24.134c-12.934-4.699-12.739-14.992-12.565-24.085q.016-.818.027-1.593c5.047-.213 9.083-1.742 12.538-4.752 3.456 3.01 7.492 4.539 12.54 4.752q.011.776.027 1.592c.174 9.093.369 19.387-12.567 24.086"/><path d="m396.338 109.623-6.082 6.081-2.595-2.595a1.26 1.26 0 0 0-1.782 1.782l3.486 3.487a1.26 1.26 0 0 0 1.782 0l6.973-6.973a1.26 1.26 0 0 0-1.782-1.782"/></g><path fill="#0088cf" d="M341.328 154v-8.727h5.676v1.325h-4.095v2.369h3.801v1.326h-3.801v2.382h4.129V154zm8.763-3.835V154h-1.543v-6.545h1.475v1.112h.077q.225-.55.72-.874.498-.324 1.231-.324.678 0 1.181.29.507.29.784.84.281.55.277 1.333V154h-1.543v-3.929q0-.656-.341-1.027-.336-.37-.933-.371-.405 0-.72.179a1.24 1.24 0 0 0-.49.507q-.175.333-.175.806m10.943-.98-1.406.153a1.12 1.12 0 0 0-.601-.703 1.4 1.4 0 0 0-.605-.115q-.482 0-.81.209-.324.208-.319.541a.56.56 0 0 0 .209.464q.216.18.716.294l1.116.239q.929.2 1.381.635.456.435.46 1.138a1.8 1.8 0 0 1-.362 1.091q-.354.468-.985.733-.63.264-1.449.264-1.202 0-1.934-.503-.733-.507-.874-1.411l1.504-.144q.103.442.435.669.333.225.865.225.55 0 .882-.225.337-.226.337-.559a.58.58 0 0 0-.217-.464q-.213-.183-.665-.281l-1.117-.235q-.941-.196-1.393-.66-.451-.47-.448-1.185a1.68 1.68 0 0 1 .329-1.048q.336-.448.933-.691.6-.246 1.385-.247 1.15 0 1.811.49.664.49.822 1.326m5.585 2.062v-3.792h1.542V154h-1.495v-1.163h-.069q-.22.55-.728.899-.503.35-1.24.349-.644 0-1.138-.285a2 2 0 0 1-.767-.84q-.277-.554-.277-1.338v-4.167h1.543v3.929q0 .621.34.988.342.366.895.367.342 0 .661-.167.32-.165.524-.494.209-.331.209-.831m3.129 2.753v-6.545h1.495v1.09h.069q.178-.566.613-.873a1.7 1.7 0 0 1 1.002-.311q.128 0 .285.013.162.008.269.029v1.419a1.7 1.7 0 0 0-.311-.059q-.21-.03-.405-.03-.422 0-.759.183a1.35 1.35 0 0 0-.716 1.236V154zm4.758 0v-6.545h1.542V154zm.775-7.474a.9.9 0 0 1-.631-.243.8.8 0 0 1-.264-.593q0-.35.264-.592a.9.9 0 0 1 .631-.247q.37 0 .631.247a.77.77 0 0 1 .264.592q0 .345-.264.593a.9.9 0 0 1-.631.243m3.896 3.639V154h-1.543v-6.545h1.475v1.112h.077q.225-.55.72-.874.499-.324 1.231-.324.678 0 1.181.29.507.29.784.84.281.55.277 1.333V154h-1.543v-3.929q0-.656-.341-1.027-.336-.37-.933-.371-.405 0-.72.179a1.24 1.24 0 0 0-.49.507q-.175.333-.175.806m8.617 6.426q-.831 0-1.428-.226-.596-.222-.959-.597a2.1 2.1 0 0 1-.503-.83l1.39-.337q.093.192.272.379.18.192.482.315.306.129.771.128.657 0 1.087-.319.43-.316.43-1.04v-1.24h-.077a2.2 2.2 0 0 1-.349.49 1.8 1.8 0 0 1-.601.422q-.37.17-.933.17-.755 0-1.368-.353-.609-.358-.972-1.066-.358-.711-.358-1.781 0-1.078.358-1.82.363-.745.976-1.129a2.5 2.5 0 0 1 1.368-.388q.576 0 .946.196.375.192.597.465.221.268.336.507h.086v-1.082h1.521v6.652q0 .838-.401 1.389-.4.549-1.095.822-.694.273-1.576.273m.012-3.895q.49 0 .836-.239.344-.238.524-.686.179-.447.179-1.074 0-.617-.179-1.082-.175-.465-.52-.72-.34-.26-.84-.26-.514 0-.861.268-.345.269-.519.738a3 3 0 0 0-.175 1.056q0 .602.175 1.053.179.447.524.699.35.247.856.247m7.686 1.304v-8.727h3.272q1.006 0 1.688.375.685.374 1.035 1.031.354.652.354 1.483 0 .84-.354 1.491a2.5 2.5 0 0 1-1.044 1.027q-.69.371-1.7.371h-2.169v-1.3h1.956q.588 0 .963-.204t.554-.563q.183-.357.183-.822t-.183-.818a1.24 1.24 0 0 0-.558-.55q-.375-.2-.968-.2h-1.448V154zm7.654 0v-6.545h1.496v1.09h.068a1.63 1.63 0 0 1 .614-.873 1.7 1.7 0 0 1 1.001-.311q.128 0 .286.013.162.008.268.029v1.419a1.7 1.7 0 0 0-.311-.059 3 3 0 0 0-.405-.03 1.56 1.56 0 0 0-.758.183q-.333.18-.524.499a1.4 1.4 0 0 0-.192.737V154zm4.758 0v-6.545h1.543V154zm.776-7.474a.9.9 0 0 1-.631-.243.8.8 0 0 1-.264-.593q0-.35.264-.592a.9.9 0 0 1 .631-.247q.37 0 .63.247a.77.77 0 0 1 .264.592q0 .345-.264.593a.9.9 0 0 1-.63.243m8.199.929L414.548 154h-1.704l-2.331-6.545h1.645l1.504 4.862h.068l1.509-4.862zm2.764 6.677q-.622 0-1.121-.221a1.84 1.84 0 0 1-.784-.665q-.285-.44-.285-1.083 0-.553.204-.916a1.6 1.6 0 0 1 .558-.579q.354-.218.797-.329.448-.115.925-.166.575-.059.933-.106.358-.05.52-.154.166-.106.166-.328v-.025q0-.482-.285-.746-.286-.264-.823-.264-.567 0-.899.247a1.23 1.23 0 0 0-.443.584l-1.44-.205q.17-.597.562-.997.392-.405.959-.605a3.7 3.7 0 0 1 1.253-.205q.472 0 .942.111.469.11.856.367.388.25.622.686.239.434.239 1.086V154h-1.483v-.899h-.051a1.9 1.9 0 0 1-.396.511q-.252.234-.635.379-.38.141-.891.141m.401-1.133q.464 0 .805-.184.34-.187.524-.494.188-.308.188-.669v-.771a.8.8 0 0 1-.248.11 3 3 0 0 1-.383.09q-.213.038-.422.068l-.362.051q-.345.048-.618.154a1.03 1.03 0 0 0-.431.298.73.73 0 0 0-.157.486q0 .426.311.643.31.218.793.218m7.461 1.129q-.98 0-1.683-.431a2.87 2.87 0 0 1-1.078-1.188q-.375-.763-.375-1.756 0-.998.383-1.76a2.87 2.87 0 0 1 1.083-1.193q.702-.43 1.662-.431.796 0 1.41.294.618.29.985.823.366.528.417 1.236h-1.474a1.4 1.4 0 0 0-.426-.789q-.333-.32-.891-.319-.472 0-.831.255a1.63 1.63 0 0 0-.558.725q-.196.473-.196 1.133 0 .67.196 1.151.196.477.549.737.358.256.84.256.34 0 .609-.128.273-.132.456-.379t.252-.601h1.474a2.6 2.6 0 0 1-.409 1.231 2.43 2.43 0 0 1-.963.836q-.61.297-1.432.298m5.03 2.327q-.316 0-.584-.052a2.2 2.2 0 0 1-.422-.11l.358-1.202q.337.098.601.094a.74.74 0 0 0 .464-.167q.206-.157.345-.528l.133-.354-2.374-6.681h1.636l1.509 4.943h.068l1.513-4.943h1.64l-2.62 7.338a2.9 2.9 0 0 1-.486.89q-.303.375-.742.571-.434.201-1.039.201m7.356-3.648-.056.469q-.059.537-.213 1.09-.149.56-.315 1.027-.166.47-.268.738h-1.04l.162-.708q.107-.447.204-1.005.099-.559.132-1.134l.03-.477zm-107.983 10.865a1.16 1.16 0 0 0-.502-.869q-.44-.312-1.143-.312-.494 0-.848.15a1.26 1.26 0 0 0-.541.404 1 1 0 0 0-.191.584q0 .273.123.473.127.2.345.341.218.137.482.23.264.094.532.158l.819.205q.494.114.95.311.46.195.822.494.367.298.58.72t.213.989q0 .766-.392 1.351-.392.579-1.134.907-.736.324-1.785.324-1.019 0-1.769-.315a2.63 2.63 0 0 1-1.167-.921q-.418-.605-.452-1.474h1.556q.033.456.281.758.247.303.643.452.401.15.895.149.516 0 .904-.153.391-.157.613-.435.222-.28.226-.656a.84.84 0 0 0-.2-.563 1.5 1.5 0 0 0-.55-.375 5.3 5.3 0 0 0-.818-.272l-.993-.256q-1.078-.277-1.705-.839-.621-.567-.622-1.505 0-.77.418-1.351a2.76 2.76 0 0 1 1.146-.899q.724-.324 1.641-.324.929 0 1.628.324.702.32 1.103.891.4.567.414 1.304zm5.88 6.456q-.984 0-1.7-.409a2.77 2.77 0 0 1-1.095-1.168q-.384-.759-.384-1.785 0-1.011.384-1.773a2.9 2.9 0 0 1 1.082-1.193q.695-.43 1.632-.431.605 0 1.142.196.541.192.955.597.417.405.656 1.031.239.622.239 1.483v.473h-5.366v-1.04h3.887a1.66 1.66 0 0 0-.192-.788 1.4 1.4 0 0 0-.524-.55 1.5 1.5 0 0 0-.776-.2q-.472 0-.831.23a1.6 1.6 0 0 0-.558.597 1.7 1.7 0 0 0-.2.805v.908q0 .57.209.98.208.405.583.622.375.213.878.213.337 0 .61-.094.272-.098.473-.285.2-.188.302-.465l1.441.162a2.25 2.25 0 0 1-.52.997q-.38.422-.972.657a3.7 3.7 0 0 1-1.355.23m7.071 0q-.98 0-1.684-.431a2.9 2.9 0 0 1-1.078-1.188q-.375-.763-.375-1.756 0-.998.384-1.76a2.86 2.86 0 0 1 1.082-1.193q.704-.43 1.662-.431.797 0 1.411.294.618.29.984.823.367.528.418 1.236h-1.475a1.4 1.4 0 0 0-.426-.789q-.332-.32-.891-.319-.472 0-.831.255a1.65 1.65 0 0 0-.558.725q-.196.473-.196 1.133 0 .67.196 1.151.196.477.55.737.358.256.839.256.342 0 .61-.128.273-.132.456-.379t.251-.601h1.475a2.6 2.6 0 0 1-.409 1.231 2.4 2.4 0 0 1-.964.836q-.609.297-1.431.298m8.242-2.881v-3.792h1.543V170h-1.496v-1.163h-.068a1.97 1.97 0 0 1-.729.899q-.502.35-1.24.349-.643 0-1.138-.285a2 2 0 0 1-.767-.84q-.277-.554-.277-1.338v-4.167h1.543v3.929q0 .621.341.988.34.366.895.367.34 0 .66-.167.32-.165.524-.494.21-.331.209-.831M356.23 170v-6.545h1.496v1.09h.068a1.63 1.63 0 0 1 .614-.873 1.7 1.7 0 0 1 1.001-.311q.127 0 .286.013.162.008.268.029v1.419a1.7 1.7 0 0 0-.311-.059 3 3 0 0 0-.405-.03 1.56 1.56 0 0 0-.758.183q-.333.18-.525.499a1.4 1.4 0 0 0-.191.737V170zm4.758 0v-6.545h1.543V170zm.775-7.474a.9.9 0 0 1-.63-.243.8.8 0 0 1-.264-.593q0-.35.264-.592a.9.9 0 0 1 .63-.247.88.88 0 0 1 .631.247.77.77 0 0 1 .264.592q0 .345-.264.593a.9.9 0 0 1-.631.243m5.622.929v1.193h-3.762v-1.193zm-2.834-1.569h1.543v6.145q0 .312.094.478.097.16.256.221.157.06.349.06.145 0 .264-.022.124-.021.188-.038l.26 1.206q-.125.043-.354.094a3 3 0 0 1-.554.059 2.5 2.5 0 0 1-1.044-.174 1.63 1.63 0 0 1-.737-.605q-.268-.41-.265-1.023zm5.083 10.569a3 3 0 0 1-.584-.052 2.2 2.2 0 0 1-.421-.11l.358-1.202q.336.098.6.094a.74.74 0 0 0 .465-.167q.204-.157.345-.528l.132-.354-2.373-6.681h1.636l1.508 4.943h.069l1.512-4.943h1.641l-2.621 7.338a2.9 2.9 0 0 1-.486.89q-.301.375-.741.571-.435.201-1.04.201m11.54-2.327q-.895 0-1.538-.324a2.45 2.45 0 0 1-.993-.874 2.3 2.3 0 0 1-.345-1.248q0-.525.213-.929.217-.405.596-.75.383-.345.887-.686l1.546-1.053q.342-.222.516-.469a.96.96 0 0 0 .179-.579q0-.281-.239-.533-.234-.25-.647-.251a.9.9 0 0 0-.49.132.91.91 0 0 0-.444.78q0 .285.158.579.162.294.418.61l.554.669L385.64 170h-1.671l-3.4-3.895a60 60 0 0 1-.733-.873 4.6 4.6 0 0 1-.575-.895 2.34 2.34 0 0 1-.222-1.015q0-.617.286-1.103.286-.49.796-.772.516-.28 1.206-.281.692 0 1.185.273.495.273.763.724.268.452.268.985 0 .618-.306 1.108a3.2 3.2 0 0 1-.853.882l-1.764 1.291q-.435.315-.622.639-.188.32-.188.546 0 .345.175.626t.49.452q.32.166.746.166.469 0 .925-.209.456-.213.831-.605t.596-.937a3.2 3.2 0 0 0 .222-1.219h1.325q0 .827-.183 1.44-.183.61-.473 1.031a3 3 0 0 1-.614.669l-.196.145a5 5 0 0 1-.196.145 2.9 2.9 0 0 1-1.078.614q-.613.195-1.206.196m15.864-5.911h-1.594a2 2 0 0 0-.251-.694 1.86 1.86 0 0 0-1.078-.84 2.4 2.4 0 0 0-.746-.111q-.712 0-1.261.358-.55.354-.861 1.04-.312.682-.311 1.666 0 1.002.311 1.688.315.681.861 1.031.549.345 1.257.345.391 0 .733-.102.345-.107.618-.311a1.9 1.9 0 0 0 .728-1.185l1.594.009q-.09.623-.388 1.167a3.43 3.43 0 0 1-1.888 1.611 4.2 4.2 0 0 1-1.419.23q-1.15 0-2.054-.532t-1.423-1.539q-.52-1.005-.52-2.412 0-1.41.524-2.412.525-1.005 1.428-1.538t2.045-.533q.729 0 1.356.205.625.204 1.116.601.49.392.805.963.32.567.418 1.295m4.235 5.911q-.958 0-1.662-.422a2.86 2.86 0 0 1-1.091-1.18q-.384-.759-.384-1.773t.384-1.777a2.85 2.85 0 0 1 1.091-1.185q.704-.422 1.662-.422.959 0 1.662.422.703.421 1.086 1.185.388.762.388 1.777t-.388 1.773a2.84 2.84 0 0 1-1.086 1.18q-.704.422-1.662.422m.008-1.236q.52 0 .87-.285a1.7 1.7 0 0 0 .519-.776q.175-.486.175-1.082 0-.601-.175-1.087a1.7 1.7 0 0 0-.519-.78q-.35-.29-.87-.29-.532 0-.886.29a1.74 1.74 0 0 0-.524.78 3.3 3.3 0 0 0-.171 1.087q0 .596.171 1.082.174.486.524.776.354.285.886.285m4.437 1.108v-6.545h1.475v1.112h.077q.204-.563.677-.878.473-.32 1.129-.32.666 0 1.121.324.46.32.648.874h.068q.217-.546.733-.87.52-.328 1.231-.328.904 0 1.475.571t.571 1.667V170h-1.547v-4.155q0-.61-.324-.89a1.15 1.15 0 0 0-.792-.286q-.56 0-.874.349-.31.346-.311.9V170h-1.513v-4.219q0-.507-.307-.809-.302-.303-.792-.303a1.1 1.1 0 0 0-.605.17 1.2 1.2 0 0 0-.435.473 1.5 1.5 0 0 0-.162.708V170zm10.77 2.455v-9h1.517v1.082h.089q.12-.239.337-.507a1.8 1.8 0 0 1 .588-.465q.371-.196.946-.196.759 0 1.368.388.613.384.972 1.138.362.75.362 1.841 0 1.078-.354 1.832-.354.755-.963 1.151a2.5 2.5 0 0 1-1.381.396q-.562 0-.933-.187a1.9 1.9 0 0 1-.596-.452 3 3 0 0 1-.346-.507h-.063v3.486zm1.513-5.728q0 .636.179 1.112.183.478.524.746.345.264.835.264.511 0 .857-.272.345-.277.519-.755.18-.481.179-1.095a3.1 3.1 0 0 0-.174-1.082 1.63 1.63 0 0 0-.52-.742q-.345-.268-.861-.268-.494 0-.839.26a1.6 1.6 0 0 0-.525.729q-.174.468-.174 1.103m7.53-5.454V170h-1.543v-8.727zm1.586 8.727v-6.545h1.542V170zm.775-7.474a.9.9 0 0 1-.63-.243.8.8 0 0 1-.264-.593q0-.35.264-.592a.9.9 0 0 1 .63-.247.88.88 0 0 1 .631.247.77.77 0 0 1 .264.592q0 .345-.264.593a.9.9 0 0 1-.631.243m4.237 7.606q-.622 0-1.12-.221a1.84 1.84 0 0 1-.785-.665q-.285-.44-.285-1.083 0-.553.204-.916.205-.362.559-.579.353-.218.797-.329.447-.115.924-.166.576-.059.934-.106.357-.05.519-.154.167-.106.167-.328v-.025q0-.482-.286-.746-.285-.264-.822-.264-.567 0-.899.247a1.23 1.23 0 0 0-.444.584l-1.44-.205q.17-.597.562-.997.392-.405.959-.605a3.7 3.7 0 0 1 1.253-.205q.473 0 .942.111.469.11.856.367.388.25.623.686.238.434.238 1.086V170h-1.483v-.899h-.051a1.9 1.9 0 0 1-.396.511 1.9 1.9 0 0 1-.635.379q-.38.141-.891.141m.401-1.133q.464 0 .805-.184.341-.187.524-.494.188-.308.188-.669v-.771a.7.7 0 0 1-.247.11 3 3 0 0 1-.384.09q-.212.038-.422.068l-.362.051q-.345.048-.618.154a1 1 0 0 0-.43.298.73.73 0 0 0-.158.486q0 .426.311.643.312.218.793.218m6.149-2.834V170h-1.543v-6.545h1.475v1.112h.077q.225-.55.72-.874.498-.324 1.231-.324.678 0 1.181.29.507.29.784.84.281.55.277 1.333V170h-1.543v-3.929q0-.656-.341-1.027-.336-.37-.933-.371-.405 0-.72.179a1.24 1.24 0 0 0-.49.507q-.175.333-.175.806m8.625 3.963q-.98 0-1.683-.431a2.86 2.86 0 0 1-1.078-1.188q-.375-.763-.375-1.756 0-.998.383-1.76a2.87 2.87 0 0 1 1.083-1.193q.702-.43 1.661-.431.798 0 1.411.294.618.29.984.823.367.528.418 1.236h-1.474a1.4 1.4 0 0 0-.427-.789q-.332-.32-.89-.319-.474 0-.831.255a1.63 1.63 0 0 0-.558.725q-.196.473-.196 1.133 0 .67.196 1.151.195.477.549.737.358.256.84.256.34 0 .609-.128.273-.132.456-.379t.252-.601h1.474a2.6 2.6 0 0 1-.409 1.231 2.43 2.43 0 0 1-.963.836q-.61.297-1.432.298m6.968 0q-.984 0-1.7-.409a2.8 2.8 0 0 1-1.095-1.168q-.384-.759-.384-1.785 0-1.011.384-1.773a2.9 2.9 0 0 1 1.082-1.193q.695-.43 1.632-.431.605 0 1.142.196.541.192.955.597.417.405.656 1.031.239.622.239 1.483v.473h-5.365v-1.04h3.886a1.66 1.66 0 0 0-.192-.788 1.4 1.4 0 0 0-.524-.55q-.332-.2-.775-.2-.474 0-.831.23-.358.226-.558.597a1.7 1.7 0 0 0-.201.805v.908q0 .57.209.98.209.405.584.622.374.213.878.213.336 0 .609-.094.273-.098.473-.285.2-.188.303-.465l1.44.162a2.24 2.24 0 0 1-.52.997q-.38.422-.972.657-.591.23-1.355.23"/><path fill="#0088cf" stroke="#0088cf" stroke-width=".2" d="M467.135 263.474c0-6.139-4.995-11.134-11.135-11.134-9.107-.076-14.444 10.695-8.859 17.879 2.759 3.618 2.921 4.045 2.921 5.726v6.235c0 .41.332.742.742.742h1.228l1.117 1.737a.74.74 0 0 0 .625.341h4.453a.74.74 0 0 0 .625-.341l1.117-1.737h1.227c.41 0 .743-.332.743-.742v-6.235c-.255-3.838 5.32-5.985 5.196-12.471Zm-15.513 13.213h8.757q.038 0 .075-.004v1.826q-.037-.004-.075-.004h-8.757l-.075.004v-1.826q.037.004.075.004Zm7.941 4.75a.74.74 0 0 0-.624.341l-1.117 1.738h-3.643l-1.117-1.738a.74.74 0 0 0-.624-.341h-.891v-1.451q.037.004.075.004h8.757q.038 0 .075-.004v1.451zm.913-6.228a1 1 0 0 0-.097-.007h-3.636v-4.305h.742a.743.743 0 0 0 .738-.66l.146-1.316a6 6 0 0 0 1.163-.673l1.214.532a.74.74 0 0 0 .94-.309l1.485-2.571a.74.74 0 0 0-.203-.969l-1.067-.785a6 6 0 0 0 0-1.343l1.067-.785a.74.74 0 0 0 .203-.969l-1.485-2.572a.743.743 0 0 0-.94-.309l-1.214.532a6 6 0 0 0-1.163-.673l-.146-1.315a.743.743 0 0 0-.738-.661h-2.969a.743.743 0 0 0-.738.661l-.146 1.315a6 6 0 0 0-1.164.673l-1.213-.532a.744.744 0 0 0-.941.309l-1.484 2.572a.74.74 0 0 0 .203.969l1.067.785a6 6 0 0 0 0 1.343l-1.067.785a.74.74 0 0 0-.203.969l1.484 2.571a.74.74 0 0 0 .941.309l1.213-.532q.545.404 1.164.673l.146 1.316c.042.376.36.66.738.66h.742v4.305h-3.636a1 1 0 0 0-.097.007c-.116-1.714-.753-2.676-3.204-5.89-4.839-6.226-.213-15.562 7.68-15.494 7.891-.067 12.518 9.268 7.678 15.494-2.451 3.214-3.087 4.176-3.203 5.89Zm-8.846-10.874a4.5 4.5 0 0 1 0-1.722.74.74 0 0 0-.289-.74l-.893-.658.82-1.42 1.017.445a.74.74 0 0 0 .786-.12c.44-.384.941-.674 1.489-.861a.74.74 0 0 0 .498-.621l.122-1.102h1.641l.122 1.102a.74.74 0 0 0 .498.621 4.4 4.4 0 0 1 1.488.861.75.75 0 0 0 .787.121l1.017-.446.82 1.42-.894.658a.74.74 0 0 0-.288.741 4.5 4.5 0 0 1 0 1.721.74.74 0 0 0 .288.741l.894.657-.82 1.421-1.017-.446a.74.74 0 0 0-.786.121c-.44.384-.941.674-1.489.861a.74.74 0 0 0-.498.621l-.122 1.102h-1.641l-.122-1.102a.74.74 0 0 0-.498-.621 4.4 4.4 0 0 1-1.489-.861.74.74 0 0 0-.786-.121l-1.017.446-.82-1.421.894-.657a.74.74 0 0 0 .288-.741Z"/><path fill="#0088cf" d="M456 266.07a2.6 2.6 0 0 0 2.598-2.598c-.13-3.442-5.066-3.441-5.196 0A2.6 2.6 0 0 0 456 266.07m0-3.712c.614 0 1.114.5 1.114 1.114-.056 1.475-2.171 1.474-2.227 0 0-.614.499-1.114 1.113-1.114m0-11.503c.41 0 .742-.332.742-.742v-2.375c-.036-.984-1.448-.983-1.484 0v2.375c0 .41.332.742.742.742m-9.972 3.697c.719.671 1.72-.331 1.05-1.05l-1.68-1.679c-.719-.671-1.72.331-1.05 1.05zm-3.39 8.178h-2.375c-.984.037-.983 1.449 0 1.485h2.375c.984-.037.983-1.448 0-1.485m3.39 9.667-1.68 1.68c-.671.719.332 1.72 1.05 1.049l1.68-1.679c.67-.719-.332-1.721-1.05-1.05m19.942 0c-.719-.671-1.72.331-1.05 1.05l1.68 1.679c.719.671 1.72-.331 1.05-1.049zm5.766-9.667h-2.375c-.984.037-.983 1.449 0 1.485h2.375c.984-.037.983-1.448 0-1.485m-5.134-10.907-1.68 1.679c-.671.72.332 1.721 1.05 1.05l1.68-1.679c.671-.72-.332-1.721-1.05-1.05m-37.714 49.394h-1.594a2 2 0 0 0-.252-.694 1.86 1.86 0 0 0-1.078-.84 2.4 2.4 0 0 0-.745-.111q-.712 0-1.262.358-.549.354-.861 1.04-.31.682-.311 1.666 0 1.002.311 1.688.317.681.861 1.031.55.345 1.257.345.393 0 .733-.102.345-.107.618-.311.277-.204.465-.503.191-.298.264-.682l1.594.009q-.09.622-.388 1.167a3.4 3.4 0 0 1-.771.963 3.6 3.6 0 0 1-1.117.648 4.2 4.2 0 0 1-1.419.23q-1.15 0-2.054-.532-.903-.533-1.423-1.539t-.52-2.412q0-1.41.524-2.412.524-1.005 1.428-1.538t2.045-.533q.73 0 1.355.205.627.204 1.117.601.49.392.805.963.32.567.418 1.295m1.379 5.783v-6.545h1.543V307zm.776-7.474a.9.9 0 0 1-.631-.243.8.8 0 0 1-.264-.593q0-.35.264-.592a.9.9 0 0 1 .631-.247q.37 0 .63.247a.77.77 0 0 1 .265.592q0 .345-.265.593a.9.9 0 0 1-.63.243m5.622.929v1.193h-3.763v-1.193zm-2.834-1.569h1.542v6.145q0 .312.094.478a.5.5 0 0 0 .256.221q.157.06.349.06.145 0 .264-.022.124-.021.188-.038l.26 1.206q-.123.043-.354.094-.225.051-.554.059a2.5 2.5 0 0 1-1.044-.174 1.63 1.63 0 0 1-.737-.605q-.269-.41-.264-1.023zm4.124 8.114v-6.545h1.542V307zm.775-7.474a.9.9 0 0 1-.63-.243.78.78 0 0 1-.265-.593q0-.35.265-.592a.9.9 0 0 1 .63-.247q.371 0 .631.247a.77.77 0 0 1 .264.592q0 .345-.264.593a.9.9 0 0 1-.631.243m2.268 7.474v-.98l3.375-4.232v-.055h-3.264v-1.278h5.152v1.052l-3.213 4.159v.056h3.324V307zm9.534.128q-.984 0-1.7-.409a2.77 2.77 0 0 1-1.095-1.168q-.384-.759-.384-1.785 0-1.011.384-1.773a2.9 2.9 0 0 1 1.082-1.193q.695-.43 1.632-.431.605 0 1.142.196.541.192.955.597.417.405.656 1.031.239.622.239 1.483v.473h-5.365v-1.04h3.886a1.66 1.66 0 0 0-.192-.788 1.4 1.4 0 0 0-.524-.55 1.5 1.5 0 0 0-.776-.2q-.473 0-.83.23-.358.227-.559.597-.195.366-.2.805v.908q0 .57.209.98.209.405.584.622.375.213.877.213.337 0 .61-.094.273-.098.473-.285t.302-.465l1.441.162a2.24 2.24 0 0 1-.52.997q-.38.422-.972.657a3.7 3.7 0 0 1-1.355.23m5.758-3.963V307h-1.542v-6.545h1.474v1.112h.077q.225-.55.72-.874.498-.324 1.232-.324.677 0 1.18.29.507.29.784.84.282.55.277 1.333V307h-1.543v-3.929q0-.656-.341-1.027-.336-.37-.933-.371-.405 0-.72.179a1.25 1.25 0 0 0-.49.507 1.7 1.7 0 0 0-.175.806m9.738-.435V304h-3.929v-1.27zm1.69 4.27v-8.727h1.581v7.402h3.844V307zm9.627.128q-.985 0-1.701-.409a2.8 2.8 0 0 1-1.095-1.168q-.383-.759-.383-1.785 0-1.011.383-1.773.389-.767 1.083-1.193.695-.43 1.632-.431.605 0 1.142.196.541.192.954.597.418.405.657 1.031.238.622.238 1.483v.473h-5.365v-1.04h3.886a1.65 1.65 0 0 0-.191-.788 1.4 1.4 0 0 0-.524-.55 1.5 1.5 0 0 0-.776-.2q-.472 0-.831.23-.358.227-.558.597a1.7 1.7 0 0 0-.201.805v.908q0 .57.209.98.21.405.584.622.375.213.878.213.337 0 .609-.094.273-.098.473-.285.201-.187.303-.465l1.44.162a2.24 2.24 0 0 1-.52.997q-.378.422-.971.657-.593.23-1.355.23m6.644-.013q-.77 0-1.381-.396-.609-.396-.963-1.151-.353-.754-.353-1.832 0-1.09.358-1.841.361-.754.976-1.138a2.5 2.5 0 0 1 1.367-.388q.576 0 .946.196.372.192.589.465.217.269.336.507h.064v-3.264h1.547V307h-1.517v-1.031h-.094a2.6 2.6 0 0 1-.345.507 1.9 1.9 0 0 1-.597.452q-.37.187-.933.187m.431-1.266q.49 0 .835-.264.345-.268.524-.746.179-.476.179-1.112 0-.635-.179-1.103a1.57 1.57 0 0 0-.52-.729q-.34-.26-.839-.26-.516 0-.861.268-.345.269-.52.742a3.1 3.1 0 0 0-.175 1.082q0 .613.175 1.095.179.478.524.755.349.273.857.272m-56.435 8.424V323h-1.581v-8.727zm3.186 4.892V323h-1.542v-6.545h1.474v1.112h.077q.225-.55.72-.874.498-.324 1.231-.324.678 0 1.181.29.507.29.784.84.281.55.277 1.333V323h-1.543v-3.929q0-.656-.341-1.027-.336-.37-.933-.371-.405 0-.72.179a1.25 1.25 0 0 0-.49.507q-.175.333-.175.806m7.313 0V323h-1.543v-6.545h1.474v1.112h.077q.227-.55.72-.874.499-.324 1.232-.324.678 0 1.18.29.508.29.784.84.282.55.277 1.333V323h-1.542v-3.929q0-.656-.341-1.027-.338-.37-.933-.371-.405 0-.721.179-.31.176-.49.507a1.7 1.7 0 0 0-.174.806m8.625 3.963q-.96 0-1.662-.422a2.86 2.86 0 0 1-1.091-1.18q-.384-.759-.384-1.773t.384-1.777a2.85 2.85 0 0 1 1.091-1.185q.702-.422 1.662-.422.959 0 1.662.422.703.421 1.086 1.185.388.763.388 1.777t-.388 1.773a2.84 2.84 0 0 1-1.086 1.18q-.704.422-1.662.422m.008-1.236q.52 0 .87-.285.349-.29.519-.776.175-.486.175-1.082 0-.601-.175-1.087a1.7 1.7 0 0 0-.519-.78q-.35-.29-.87-.29-.532 0-.886.29a1.74 1.74 0 0 0-.524.78 3.3 3.3 0 0 0-.171 1.087q0 .596.171 1.082.174.486.524.776.354.285.886.285m10.061-5.437L454.847 323h-1.704l-2.331-6.545h1.645l1.504 4.862h.068l1.509-4.862zm2.764 6.677q-.623 0-1.121-.221a1.83 1.83 0 0 1-.784-.665q-.286-.44-.286-1.083 0-.553.205-.916.204-.362.558-.579.354-.218.797-.329.448-.114.925-.166.575-.059.933-.106.358-.05.52-.154.166-.106.166-.328v-.025q0-.482-.285-.746-.286-.264-.823-.264-.567 0-.899.247a1.23 1.23 0 0 0-.443.584l-1.441-.205q.171-.597.563-.997.392-.405.959-.605a3.7 3.7 0 0 1 1.253-.205q.473 0 .941.111.469.11.857.367.387.25.622.686.239.434.239 1.086V323h-1.483v-.899h-.051a1.88 1.88 0 0 1-1.032.89 2.6 2.6 0 0 1-.89.141m.4-1.133q.464 0 .806-.184.34-.187.524-.494a1.26 1.26 0 0 0 .187-.669v-.771a.7.7 0 0 1-.247.11 3 3 0 0 1-.383.09q-.213.038-.422.068l-.362.051a2.7 2.7 0 0 0-.618.154q-.273.106-.431.298a.73.73 0 0 0-.157.486q0 .426.311.643.31.218.792.218m7.875-5.544v1.193h-3.762v-1.193zm-2.833-1.569h1.542v6.145q0 .312.094.478.097.16.256.221.157.06.349.06.145 0 .264-.022.124-.021.188-.038l.26 1.206q-.125.043-.354.094a3 3 0 0 1-.554.059 2.5 2.5 0 0 1-1.044-.174 1.63 1.63 0 0 1-.737-.605q-.269-.41-.264-1.023zm4.123 8.114v-6.545h1.543V323zm.776-7.474a.9.9 0 0 1-.631-.243.8.8 0 0 1-.264-.593q0-.35.264-.592a.9.9 0 0 1 .631-.247q.37 0 .631.247a.77.77 0 0 1 .264.592q0 .345-.264.593a.9.9 0 0 1-.631.243m5.208 7.602q-.959 0-1.661-.422a2.86 2.86 0 0 1-1.091-1.18q-.384-.759-.384-1.773t.384-1.777a2.85 2.85 0 0 1 1.091-1.185q.702-.422 1.661-.422t1.662.422 1.087 1.185q.388.763.388 1.777t-.388 1.773a2.84 2.84 0 0 1-1.087 1.18q-.702.422-1.662.422m.009-1.236q.52 0 .869-.285.35-.29.52-.776.175-.486.175-1.082 0-.601-.175-1.087a1.7 1.7 0 0 0-.52-.78q-.349-.29-.869-.29-.533 0-.886.29a1.75 1.75 0 0 0-.525.78q-.17.486-.17 1.087 0 .596.17 1.082.175.486.525.776.353.285.886.285m5.98-2.727V323h-1.543v-6.545h1.475v1.112h.076q.226-.55.72-.874.499-.324 1.232-.324.678 0 1.18.29.508.29.784.84.282.55.277 1.333V323h-1.542v-3.929q0-.656-.341-1.027-.337-.37-.933-.371-.405 0-.72.179a1.25 1.25 0 0 0-.491.507 1.7 1.7 0 0 0-.174.806"/><path fill="#0088cf" stroke="#f2f9fc" stroke-width=".5" d="M403.17 410.865c.691 0 1.25-.56 1.25-1.25v-2.514c0-.481-.275-.918-.709-1.126l-13.817-6.633a1.25 1.25 0 0 0-1.06-.011l-14.525 6.633a1.25 1.25 0 0 0-.731 1.137v2.514c0 .69.559 1.25 1.25 1.25h1.752v10.304h-1.752a1.25 1.25 0 1 0 0 2.5h28.342a1.25 1.25 0 1 0 0-2.5h-1.751v-10.304zm-27.092-2.961 13.262-6.055 12.58 6.039v.477h-25.842zm15.383 2.961v10.304h-4.924v-10.304zm-12.381 10.304v-10.304h4.957v10.304zm19.839 0h-4.958v-10.304h4.958zm6.331 5.112h-32.5a1.25 1.25 0 1 0 0 2.5h32.5a1.25 1.25 0 1 0 0-2.5Z"/><path fill="#0088cf" d="M319.068 456v-8.727h5.591v1.325h-4.01v2.369h3.626v1.326h-3.626V456zm9.38.128q-.984 0-1.7-.409a2.77 2.77 0 0 1-1.095-1.168q-.384-.759-.384-1.785 0-1.011.384-1.773a2.9 2.9 0 0 1 1.082-1.193q.695-.43 1.632-.431.606 0 1.142.196.541.192.955.597.417.405.656 1.031.239.622.239 1.483v.473h-5.365v-1.04h3.886a1.66 1.66 0 0 0-.192-.788 1.4 1.4 0 0 0-.524-.55 1.5 1.5 0 0 0-.776-.2q-.473 0-.83.23-.358.227-.559.597-.195.366-.2.805v.908q0 .57.209.98.209.405.584.622.375.213.877.213.337 0 .61-.094.273-.098.473-.285t.302-.465l1.441.162a2.24 2.24 0 0 1-.52.997q-.38.422-.972.657a3.7 3.7 0 0 1-1.355.23m6.645-.013q-.772 0-1.381-.396t-.963-1.151-.354-1.832q0-1.09.358-1.841.363-.754.976-1.138a2.5 2.5 0 0 1 1.368-.388q.575 0 .946.196.37.192.588.465.217.269.337.507h.064v-3.264h1.546V456h-1.517v-1.031h-.093q-.12.238-.345.507a1.9 1.9 0 0 1-.597.452q-.37.187-.933.187m.43-1.266q.49 0 .835-.264.345-.268.524-.746a3.1 3.1 0 0 0 .179-1.112q0-.635-.179-1.103a1.56 1.56 0 0 0-.519-.729q-.342-.26-.84-.26-.516 0-.861.268-.345.269-.52.742a3.1 3.1 0 0 0-.174 1.082q0 .613.174 1.095.18.478.525.755.35.273.856.272m7.597 1.279q-.984 0-1.7-.409a2.77 2.77 0 0 1-1.095-1.168q-.384-.759-.384-1.785 0-1.011.384-1.773a2.9 2.9 0 0 1 1.082-1.193q.695-.43 1.632-.431.605 0 1.142.196.541.192.955.597.417.405.656 1.031.239.622.239 1.483v.473h-5.366v-1.04h3.887a1.66 1.66 0 0 0-.192-.788 1.4 1.4 0 0 0-.524-.55 1.5 1.5 0 0 0-.776-.2q-.472 0-.831.23a1.6 1.6 0 0 0-.558.597 1.7 1.7 0 0 0-.2.805v.908q0 .57.209.98.208.405.583.622.375.213.878.213.337 0 .61-.094.273-.098.473-.285t.302-.465l1.441.162a2.25 2.25 0 0 1-.52.997q-.38.422-.972.657a3.7 3.7 0 0 1-1.355.23m4.216-.128v-6.545h1.495v1.09h.069q.178-.566.613-.873a1.7 1.7 0 0 1 1.002-.311q.128 0 .285.013.162.008.269.029v1.419a1.7 1.7 0 0 0-.312-.059 3 3 0 0 0-.404-.03q-.422 0-.759.183a1.35 1.35 0 0 0-.716 1.236V456zm6.524.132q-.623 0-1.121-.221a1.83 1.83 0 0 1-.784-.665q-.285-.44-.286-1.083 0-.553.205-.916.204-.362.558-.579.354-.218.797-.329.447-.114.925-.166.575-.059.933-.106.358-.05.52-.154.166-.106.166-.328v-.025q0-.482-.285-.746-.286-.264-.823-.264-.567 0-.899.247a1.23 1.23 0 0 0-.443.584l-1.441-.205q.171-.597.563-.997.392-.405.959-.605a3.7 3.7 0 0 1 1.253-.205q.473 0 .941.111.469.11.857.367.387.25.622.686.239.434.239 1.086V456h-1.483v-.899h-.051a1.88 1.88 0 0 1-1.032.89 2.6 2.6 0 0 1-.89.141m.4-1.133q.464 0 .806-.184.34-.187.524-.494a1.26 1.26 0 0 0 .187-.669v-.771a.7.7 0 0 1-.247.11 3 3 0 0 1-.383.09q-.213.039-.422.068l-.362.051a2.7 2.7 0 0 0-.618.154q-.273.106-.431.298a.73.73 0 0 0-.157.486q0 .426.311.643.31.218.792.218m7.875-5.544v1.193h-3.762v-1.193zm-2.834-1.569h1.543v6.145q0 .312.094.478.097.16.256.221.157.06.349.06.145 0 .264-.022.124-.021.188-.038l.26 1.206q-.125.043-.354.094a3 3 0 0 1-.554.059 2.5 2.5 0 0 1-1.044-.174 1.63 1.63 0 0 1-.737-.605q-.268-.41-.265-1.023zm6.952 8.242q-.984 0-1.7-.409a2.77 2.77 0 0 1-1.096-1.168q-.383-.759-.383-1.785 0-1.011.383-1.773.389-.767 1.083-1.193.695-.43 1.632-.431.605 0 1.142.196.541.192.954.597.418.405.657 1.031.238.622.238 1.483v.473h-5.365v-1.04h3.887a1.66 1.66 0 0 0-.192-.788 1.4 1.4 0 0 0-.524-.55 1.5 1.5 0 0 0-.776-.2q-.472 0-.831.23a1.6 1.6 0 0 0-.558.597 1.7 1.7 0 0 0-.2.805v.908q0 .57.208.98.21.405.584.622.375.213.878.213.337 0 .61-.094.272-.098.473-.285t.302-.465l1.44.162q-.136.571-.519.997-.38.422-.972.657-.593.23-1.355.23m6.644-.013q-.771 0-1.38-.396-.61-.396-.963-1.151-.354-.754-.354-1.832 0-1.09.358-1.841.362-.754.976-1.138a2.5 2.5 0 0 1 1.368-.388q.574 0 .946.196.37.192.588.465.218.269.336.507h.064v-3.264h1.547V456h-1.517v-1.031h-.094a2.6 2.6 0 0 1-.345.507q-.225.264-.596.452-.372.187-.934.187m.431-1.266q.49 0 .835-.264.345-.268.524-.746.179-.476.179-1.112 0-.635-.179-1.103a1.57 1.57 0 0 0-.52-.729q-.34-.26-.839-.26-.516 0-.861.268-.345.269-.52.742a3.1 3.1 0 0 0-.175 1.082q0 .613.175 1.095.179.478.524.755.35.273.857.272M384.029 456h-2.957v-8.727h3.017q1.3 0 2.233.524a3.5 3.5 0 0 1 1.44 1.496q.503.976.503 2.335 0 1.363-.507 2.344a3.5 3.5 0 0 1-1.453 1.504q-.947.524-2.276.524m-1.376-1.368h1.299q.912 0 1.522-.332.609-.338.916-1.002.306-.67.307-1.67 0-1.002-.307-1.662a2.1 2.1 0 0 0-.908-.993q-.596-.332-1.483-.332h-1.346zm8.929 1.5a2.7 2.7 0 0 1-1.12-.221 1.83 1.83 0 0 1-.784-.665q-.286-.44-.286-1.083 0-.553.205-.916.204-.362.558-.579.353-.218.797-.329.447-.114.924-.166.576-.059.934-.106.358-.05.52-.154.166-.106.166-.328v-.025q0-.482-.286-.746-.285-.264-.822-.264-.567 0-.899.247a1.23 1.23 0 0 0-.444.584l-1.44-.205q.17-.597.563-.997a2.44 2.44 0 0 1 .958-.605 3.7 3.7 0 0 1 1.253-.205q.474 0 .942.111.469.11.857.367.387.25.622.686.238.434.238 1.086V456h-1.483v-.899h-.051a1.87 1.87 0 0 1-1.031.89q-.38.141-.891.141m.401-1.133q.465 0 .805-.184.341-.187.524-.494.188-.308.188-.669v-.771a.7.7 0 0 1-.247.11 3 3 0 0 1-.384.09q-.212.039-.422.068l-.362.051q-.345.048-.618.154-.272.106-.43.298a.73.73 0 0 0-.158.486q0 .426.311.643.312.218.793.218m7.875-5.544v1.193h-3.763v-1.193zm-2.834-1.569h1.543v6.145q0 .312.094.478.097.16.255.221.158.06.35.06.144 0 .264-.022.123-.021.187-.038l.26 1.206q-.123.043-.353.094a3 3 0 0 1-.554.059 2.5 2.5 0 0 1-1.044-.174 1.63 1.63 0 0 1-.738-.605q-.268-.41-.264-1.023zm6.008 8.246q-.623 0-1.121-.221a1.83 1.83 0 0 1-.784-.665q-.286-.44-.286-1.083 0-.553.205-.916.204-.362.558-.579.353-.218.797-.329.447-.114.925-.166.575-.059.933-.106.358-.05.52-.154.166-.106.166-.328v-.025q0-.482-.286-.746-.285-.264-.822-.264-.567 0-.899.247a1.2 1.2 0 0 0-.443.584l-1.441-.205q.17-.597.563-.997.392-.405.959-.605a3.7 3.7 0 0 1 1.252-.205q.474 0 .942.111.469.11.857.367.387.25.622.686.239.434.239 1.086V456h-1.483v-.899h-.052a1.85 1.85 0 0 1-1.031.89 2.6 2.6 0 0 1-.89.141m.4-1.133q.464 0 .806-.184.34-.187.524-.494a1.26 1.26 0 0 0 .187-.669v-.771a.7.7 0 0 1-.247.11 3 3 0 0 1-.383.09q-.214.039-.422.068l-.363.051q-.345.048-.617.154-.273.106-.431.298a.73.73 0 0 0-.158.486q0 .426.312.643.31.218.792.218m12.757-3.814-1.407.153a1.1 1.1 0 0 0-.208-.4 1.04 1.04 0 0 0-.393-.303 1.4 1.4 0 0 0-.605-.115q-.482 0-.809.209-.324.208-.32.541a.56.56 0 0 0 .209.464q.217.18.716.294l1.116.239q.93.2 1.381.635.456.435.46 1.138a1.78 1.78 0 0 1-.362 1.091q-.354.468-.984.733-.631.264-1.449.264-1.202 0-1.935-.503-.733-.507-.874-1.411l1.505-.144q.102.442.434.669.333.225.865.225.55 0 .883-.225.336-.226.336-.559a.58.58 0 0 0-.217-.464q-.213-.183-.665-.281l-1.116-.235q-.942-.196-1.394-.66-.452-.47-.447-1.185a1.67 1.67 0 0 1 .328-1.048q.336-.447.933-.691.601-.246 1.385-.247 1.15 0 1.811.49.664.49.823 1.326m4.267 4.943q-.958 0-1.662-.422a2.9 2.9 0 0 1-1.091-1.18q-.383-.759-.383-1.773t.383-1.777a2.86 2.86 0 0 1 1.091-1.185q.704-.422 1.662-.422.96 0 1.662.422.703.421 1.087 1.185.387.763.388 1.777 0 1.014-.388 1.773a2.84 2.84 0 0 1-1.087 1.18q-.702.422-1.662.422m.009-1.236q.52 0 .869-.285.35-.29.52-.776.175-.486.175-1.082 0-.601-.175-1.087a1.7 1.7 0 0 0-.52-.78q-.35-.29-.869-.29-.533 0-.887.29a1.76 1.76 0 0 0-.524.78q-.17.486-.17 1.087 0 .596.17 1.082.176.486.524.776.354.285.887.285m8.609-1.645v-3.792h1.542V456h-1.495v-1.163h-.068a1.97 1.97 0 0 1-.729.899q-.503.35-1.24.349-.643 0-1.138-.285a2 2 0 0 1-.767-.84q-.277-.554-.277-1.338v-4.167h1.543v3.929q0 .621.341.988.34.367.894.367.342 0 .661-.167.32-.165.524-.494.209-.332.209-.831m3.129 2.753v-6.545h1.496v1.09h.068a1.63 1.63 0 0 1 1.615-1.184q.127 0 .285.013.162.008.269.029v1.419a1.7 1.7 0 0 0-.311-.059q-.21-.03-.405-.03-.422 0-.759.183a1.35 1.35 0 0 0-.716 1.236V456zm7.343.128q-.98 0-1.683-.431a2.87 2.87 0 0 1-1.078-1.188q-.375-.763-.375-1.756 0-.998.383-1.76a2.87 2.87 0 0 1 1.083-1.193q.702-.43 1.662-.431.796 0 1.41.294.618.29.985.823.366.528.417 1.236h-1.474a1.4 1.4 0 0 0-.426-.789q-.333-.32-.891-.319-.473 0-.831.255a1.63 1.63 0 0 0-.558.725q-.196.473-.196 1.133 0 .67.196 1.151.196.477.549.737.358.256.84.256.34 0 .609-.128.273-.132.456-.379t.252-.601h1.474a2.6 2.6 0 0 1-.409 1.231 2.43 2.43 0 0 1-.963.836q-.61.298-1.432.298m6.969 0q-.985 0-1.701-.409a2.8 2.8 0 0 1-1.095-1.168q-.383-.759-.383-1.785 0-1.011.383-1.773a2.9 2.9 0 0 1 1.082-1.193q.696-.43 1.633-.431.605 0 1.142.196.54.192.954.597.418.405.656 1.031.24.622.239 1.483v.473h-5.365v-1.04h3.886a1.65 1.65 0 0 0-.191-.788 1.4 1.4 0 0 0-.525-.55q-.332-.2-.775-.2-.472 0-.831.23-.358.227-.558.597a1.7 1.7 0 0 0-.201.805v.908q0 .57.209.98.209.405.584.622.375.213.878.213.336 0 .609-.094.273-.098.473-.285.201-.187.303-.465l1.44.162a2.24 2.24 0 0 1-.52.997q-.379.422-.971.657-.593.23-1.355.23m9.388-4.943-1.406.153a1.12 1.12 0 0 0-.601-.703 1.4 1.4 0 0 0-.605-.115q-.482 0-.809.209-.324.208-.32.541a.56.56 0 0 0 .209.464q.217.18.716.294l1.116.239q.929.2 1.381.635.456.435.46 1.138a1.8 1.8 0 0 1-.362 1.091q-.354.468-.985.733-.63.264-1.448.264-1.202 0-1.935-.503-.733-.507-.874-1.411l1.505-.144q.102.442.434.669.333.225.865.225.55 0 .882-.225.337-.226.337-.559a.58.58 0 0 0-.217-.464q-.213-.183-.665-.281l-1.117-.235q-.941-.196-1.393-.66-.452-.47-.447-1.185a1.67 1.67 0 0 1 .328-1.048q.336-.447.933-.691.601-.246 1.385-.247 1.15 0 1.811.49.664.49.822 1.326m3.224 3.622-.055.469q-.06.537-.213 1.09-.15.56-.316 1.027-.166.47-.268.738h-1.04l.162-.708q.106-.447.205-1.005.097-.559.132-1.134l.029-.477zM342.428 472h-2.958v-8.727h3.017q1.3 0 2.233.524a3.5 3.5 0 0 1 1.441 1.496q.502.976.502 2.335 0 1.363-.507 2.344a3.5 3.5 0 0 1-1.453 1.504q-.946.524-2.275.524m-1.377-1.368h1.3q.912 0 1.521-.332a2.13 2.13 0 0 0 .916-1.002q.307-.67.307-1.67 0-1.002-.307-1.662a2.1 2.1 0 0 0-.907-.993q-.597-.332-1.483-.332h-1.347zm8.93 1.5q-.623 0-1.121-.221a1.84 1.84 0 0 1-.784-.665q-.285-.44-.286-1.083 0-.553.205-.916.204-.362.558-.579.354-.218.797-.329.447-.114.925-.166.575-.059.933-.106.358-.05.52-.154.166-.106.166-.328v-.025q0-.482-.285-.746-.286-.264-.823-.264-.566 0-.899.247a1.23 1.23 0 0 0-.443.584l-1.44-.205q.17-.597.562-.997.392-.405.959-.605a3.7 3.7 0 0 1 1.253-.205q.473 0 .941.111.469.11.857.367.388.25.622.686.239.434.239 1.086V472h-1.483v-.899h-.051a1.88 1.88 0 0 1-1.032.89 2.6 2.6 0 0 1-.89.141m.4-1.133q.465 0 .806-.184.34-.187.524-.494a1.26 1.26 0 0 0 .187-.669v-.771a.7.7 0 0 1-.247.11 3 3 0 0 1-.383.09q-.213.039-.422.068l-.362.051q-.345.048-.618.154t-.431.298a.73.73 0 0 0-.157.486q0 .426.311.643.31.218.792.218m7.875-5.544v1.193h-3.762v-1.193zm-2.833-1.569h1.542v6.145q0 .312.094.478a.5.5 0 0 0 .256.221q.157.06.349.06.145 0 .264-.022.124-.021.188-.038l.26 1.206q-.125.043-.354.094a3 3 0 0 1-.554.059 2.5 2.5 0 0 1-1.044-.174 1.63 1.63 0 0 1-.737-.605q-.269-.41-.264-1.023zm6.007 8.246q-.622 0-1.121-.221a1.84 1.84 0 0 1-.784-.665q-.285-.44-.285-1.083 0-.553.204-.916a1.6 1.6 0 0 1 .558-.579q.354-.218.797-.329.448-.114.925-.166.576-.059.933-.106.358-.05.52-.154.166-.106.166-.328v-.025q0-.482-.285-.746t-.823-.264q-.566 0-.899.247a1.23 1.23 0 0 0-.443.584l-1.44-.205q.17-.597.562-.997.393-.405.959-.605a3.7 3.7 0 0 1 1.253-.205q.473 0 .942.111.469.11.856.367.388.25.622.686.239.434.239 1.086V472h-1.483v-.899h-.051a1.9 1.9 0 0 1-.396.511q-.252.235-.635.379-.38.141-.891.141m.401-1.133q.464 0 .805-.184.34-.187.524-.494.188-.308.188-.669v-.771a.8.8 0 0 1-.248.11 3 3 0 0 1-.383.09q-.213.039-.422.068l-.362.051q-.345.048-.618.154a1 1 0 0 0-.43.298.73.73 0 0 0-.158.486q0 .426.311.643t.793.218m7.583 3.456v-9h1.517v1.082h.089q.12-.238.337-.507a1.8 1.8 0 0 1 .588-.465q.37-.195.946-.196.759 0 1.368.388.614.384.971 1.138.363.75.363 1.841 0 1.078-.354 1.832-.354.755-.963 1.151a2.5 2.5 0 0 1-1.381.396q-.562 0-.933-.187a1.9 1.9 0 0 1-.597-.452 3 3 0 0 1-.345-.507h-.064v3.486zm1.512-5.728q0 .635.179 1.112.184.478.525.746.345.264.835.264.511 0 .856-.272.346-.277.52-.755.18-.481.179-1.095a3.1 3.1 0 0 0-.174-1.082 1.63 1.63 0 0 0-.52-.742q-.345-.268-.861-.268-.495 0-.84.26a1.6 1.6 0 0 0-.524.729q-.174.468-.175 1.103m5.988 3.273v-6.545h1.495v1.09h.069q.178-.566.613-.873a1.7 1.7 0 0 1 1.002-.311q.127 0 .285.013.162.008.269.029v1.419a1.7 1.7 0 0 0-.311-.059q-.21-.03-.405-.03-.422 0-.759.183a1.35 1.35 0 0 0-.716 1.236V472zm7.343.128q-.959 0-1.662-.422a2.87 2.87 0 0 1-1.091-1.18q-.383-.759-.383-1.773t.383-1.777a2.86 2.86 0 0 1 1.091-1.185q.704-.422 1.662-.422.959 0 1.662.422.703.421 1.087 1.185.387.763.387 1.777t-.387 1.773a2.84 2.84 0 0 1-1.087 1.18q-.704.422-1.662.422m.009-1.236q.52 0 .869-.285.35-.29.52-.776.175-.486.175-1.082 0-.601-.175-1.087a1.7 1.7 0 0 0-.52-.78q-.35-.29-.869-.29-.533 0-.887.29a1.75 1.75 0 0 0-.524.78q-.17.486-.17 1.087 0 .596.17 1.082.175.486.524.776.354.285.887.285m5.979-7.619V472h-1.542v-8.727zm1.587 8.727v-6.545h1.542V472zm.775-7.474a.9.9 0 0 1-.63-.243.78.78 0 0 1-.265-.593q0-.35.265-.592a.9.9 0 0 1 .63-.247q.371 0 .631.247a.77.77 0 0 1 .264.592q0 .345-.264.593a.9.9 0 0 1-.631.243m5.669.929v1.193h-3.869v-1.193zM395.374 472v-7.163q0-.661.273-1.1.276-.438.741-.656.465-.217 1.031-.217.401 0 .712.064.311.063.46.115l-.307 1.193a3 3 0 0 0-.247-.06 1.5 1.5 0 0 0-.332-.034q-.43 0-.609.209-.175.204-.175.588V472zm6.762.128q-.985 0-1.701-.409a2.8 2.8 0 0 1-1.095-1.168q-.383-.759-.383-1.785 0-1.011.383-1.773.389-.767 1.083-1.193.695-.43 1.632-.431.605 0 1.142.196.541.192.954.597.418.405.657 1.031.238.622.238 1.483v.473h-5.365v-1.04h3.886a1.65 1.65 0 0 0-.191-.788 1.4 1.4 0 0 0-.524-.55 1.5 1.5 0 0 0-.776-.2q-.472 0-.831.23-.358.227-.558.597a1.7 1.7 0 0 0-.2.805v.908q0 .57.208.98.21.405.584.622.375.213.878.213.337 0 .609-.094.273-.098.473-.285.201-.187.303-.465l1.44.162a2.24 2.24 0 0 1-.52.997q-.378.422-.971.657-.593.23-1.355.23m4.215-.128v-6.545h1.496v1.09h.068a1.63 1.63 0 0 1 .614-.873 1.7 1.7 0 0 1 1.001-.311q.128 0 .286.013.162.008.268.029v1.419a1.7 1.7 0 0 0-.311-.059 3 3 0 0 0-.405-.03 1.56 1.56 0 0 0-.758.183q-.333.18-.524.499a1.4 1.4 0 0 0-.192.737V472zm6.524.132a2.7 2.7 0 0 1-1.12-.221 1.83 1.83 0 0 1-.784-.665q-.286-.44-.286-1.083 0-.553.205-.916.204-.362.558-.579.353-.218.797-.329.447-.114.924-.166.576-.059.934-.106.358-.05.52-.154.166-.106.166-.328v-.025q0-.482-.286-.746-.285-.264-.822-.264-.567 0-.899.247a1.23 1.23 0 0 0-.444.584l-1.44-.205q.17-.597.563-.997a2.44 2.44 0 0 1 .958-.605 3.7 3.7 0 0 1 1.253-.205q.473 0 .942.111.468.11.857.367.387.25.622.686.238.434.238 1.086V472h-1.483v-.899h-.051a1.9 1.9 0 0 1-.396.511 1.9 1.9 0 0 1-.635.379q-.38.141-.891.141m.401-1.133q.465 0 .805-.184.341-.187.524-.494.188-.308.188-.669v-.771a.7.7 0 0 1-.247.11 3 3 0 0 1-.384.09q-.213.039-.422.068l-.362.051q-.345.048-.618.154a1 1 0 0 0-.43.298.73.73 0 0 0-.158.486q0 .426.311.643.312.218.793.218m7.875-5.544v1.193h-3.763v-1.193zm-2.834-1.569h1.543v6.145q0 .312.093.478a.5.5 0 0 0 .256.221q.158.06.35.06.144 0 .264-.022.124-.021.187-.038l.26 1.206q-.123.043-.353.094a3 3 0 0 1-.554.059 2.5 2.5 0 0 1-1.044-.174 1.63 1.63 0 0 1-.738-.605q-.269-.41-.264-1.023zm4.124 8.114v-6.545h1.543V472zm.776-7.474a.9.9 0 0 1-.631-.243.8.8 0 0 1-.264-.593q0-.35.264-.592a.9.9 0 0 1 .631-.247q.37 0 .63.247a.78.78 0 0 1 .265.592q0 .345-.265.593a.9.9 0 0 1-.63.243m5.208 7.602q-.959 0-1.662-.422a2.87 2.87 0 0 1-1.091-1.18q-.383-.759-.383-1.773t.383-1.777a2.86 2.86 0 0 1 1.091-1.185q.704-.422 1.662-.422.959 0 1.662.422.703.421 1.087 1.185.387.763.387 1.777t-.387 1.773a2.84 2.84 0 0 1-1.087 1.18q-.703.422-1.662.422m.009-1.236q.52 0 .869-.285.35-.29.52-.776.174-.486.175-1.082 0-.601-.175-1.087a1.7 1.7 0 0 0-.52-.78q-.35-.29-.869-.29-.533 0-.887.29a1.75 1.75 0 0 0-.524.78q-.17.486-.17 1.087 0 .596.17 1.082.175.486.524.776.354.285.887.285m5.979-2.727V472h-1.542v-6.545h1.474v1.112h.077a1.87 1.87 0 0 1 .72-.874q.498-.324 1.232-.324.677 0 1.18.29.507.29.784.84.282.55.277 1.333V472h-1.543v-3.929q0-.656-.34-1.027-.337-.37-.934-.371-.405 0-.72.179a1.25 1.25 0 0 0-.49.507 1.7 1.7 0 0 0-.175.806"/><g fill="#0088cf" clip-path="url(#d)"><path d="m223.38 425.112-.159-21.053h-8.184l.158 21.053h-2.033l-.159-15.053h-8.185l.159 15.053h-2.037l-.159-9.053h-8.184l.158 9.053H193v1.875h32v-1.875zm-26.749 0-.126-7.178h4.434l.126 7.178zm10.221 0-.139-13.178h4.435l.139 13.178zm10.218 0-.144-19.178h4.434l.145 19.178zm-19.476-13.681 20.468-12.357-.599 2.34 1.817.465 1.399-5.467-5.467-1.4-.465 1.816 2.392.613-20.514 12.385z"/></g><path fill="#0088cf" d="M166.66 449v-8.727h3.272q1.006 0 1.688.375.685.375 1.035 1.031.354.652.354 1.483 0 .84-.354 1.491a2.5 2.5 0 0 1-1.044 1.027q-.69.372-1.7.371h-2.169v-1.3h1.956q.588 0 .963-.204t.554-.563q.183-.357.183-.822t-.183-.818a1.24 1.24 0 0 0-.558-.55q-.375-.2-.968-.2h-1.448V449zm7.654 0v-6.545h1.496v1.09h.068a1.63 1.63 0 0 1 .614-.873 1.7 1.7 0 0 1 1.001-.311q.127 0 .286.013.162.008.268.029v1.419a1.7 1.7 0 0 0-.311-.059 3 3 0 0 0-.405-.03 1.56 1.56 0 0 0-.758.183q-.333.18-.525.499a1.4 1.4 0 0 0-.191.737V449zm7.343.128q-.959 0-1.661-.422a2.86 2.86 0 0 1-1.091-1.18q-.384-.759-.384-1.773t.384-1.777a2.85 2.85 0 0 1 1.091-1.185q.702-.422 1.661-.422t1.662.422 1.087 1.185q.388.763.388 1.777t-.388 1.773a2.84 2.84 0 0 1-1.087 1.18q-.702.422-1.662.422m.009-1.236q.52 0 .869-.285.35-.29.52-.776.175-.486.175-1.082 0-.601-.175-1.087a1.7 1.7 0 0 0-.52-.78q-.349-.29-.869-.29-.533 0-.886.29a1.74 1.74 0 0 0-.524.78 3.3 3.3 0 0 0-.171 1.087q0 .596.171 1.082.174.486.524.776.353.285.886.285m4.437 1.108v-6.545h1.475v1.112h.076q.206-.563.678-.878.473-.32 1.129-.32.665 0 1.121.324.46.32.648.874h.068q.217-.546.733-.87.52-.328 1.231-.328.904 0 1.475.571.57.571.571 1.667V449h-1.547v-4.155q0-.61-.324-.89a1.15 1.15 0 0 0-.793-.286q-.558 0-.873.349-.311.346-.311.9V449h-1.513v-4.219q0-.507-.307-.809-.303-.303-.793-.303-.332 0-.605.17a1.2 1.2 0 0 0-.434.473 1.5 1.5 0 0 0-.162.708V449zm10.77 2.455v-9h1.517v1.082h.089q.12-.238.337-.507a1.8 1.8 0 0 1 .588-.465q.37-.195.946-.196.759 0 1.368.388.614.384.971 1.138.363.75.363 1.841 0 1.078-.354 1.832-.354.755-.963 1.151a2.5 2.5 0 0 1-1.381.396q-.563 0-.933-.187a1.9 1.9 0 0 1-.597-.452 3 3 0 0 1-.345-.507h-.064v3.486zm1.512-5.728q0 .635.179 1.112.184.478.525.746.345.264.835.264.511 0 .856-.272.345-.277.52-.755.18-.481.179-1.095a3.1 3.1 0 0 0-.174-1.082 1.63 1.63 0 0 0-.52-.742q-.345-.268-.861-.268-.495 0-.84.26a1.6 1.6 0 0 0-.524.729q-.175.468-.175 1.103m9.256-3.272v1.193h-3.763v-1.193zm-2.834-1.569h1.543v6.145q0 .312.094.478.097.16.255.221.159.06.35.06.144 0 .264-.022.123-.021.188-.038l.259 1.206q-.123.043-.353.094a3 3 0 0 1-.554.059 2.5 2.5 0 0 1-1.044-.174 1.6 1.6 0 0 1-.737-.605q-.268-.41-.265-1.023zm7.881 3.844V446h-3.929v-1.27zm1.69 4.27v-8.727h1.543v3.264h.064a2.8 2.8 0 0 1 .337-.507q.216-.273.588-.465.37-.195.946-.196.757 0 1.368.388.613.384.971 1.138.362.75.362 1.841 0 1.078-.353 1.832-.354.755-.963 1.151a2.5 2.5 0 0 1-1.381.396q-.562 0-.933-.187a1.9 1.9 0 0 1-.597-.452 3 3 0 0 1-.345-.507h-.09V449zm1.513-3.273q0 .635.179 1.112.183.478.524.746.345.264.836.264.51 0 .856-.272.345-.277.52-.755.179-.481.179-1.095 0-.61-.175-1.082a1.63 1.63 0 0 0-.52-.742q-.345-.268-.86-.268-.495 0-.84.26t-.524.729a3.1 3.1 0 0 0-.175 1.103m7.861 3.405a2.7 2.7 0 0 1-1.12-.221 1.84 1.84 0 0 1-.785-.665q-.285-.44-.285-1.083 0-.553.205-.916.204-.362.558-.579.353-.218.797-.329.447-.114.924-.166.576-.059.934-.106.358-.05.519-.154.167-.106.167-.328v-.025q0-.482-.286-.746-.285-.264-.822-.264-.567 0-.899.247a1.23 1.23 0 0 0-.444.584l-1.44-.205q.17-.597.563-.997a2.44 2.44 0 0 1 .958-.605 3.7 3.7 0 0 1 1.253-.205q.473 0 .942.111.469.11.856.367.388.25.623.686.238.434.238 1.086V449h-1.483v-.899h-.051a1.9 1.9 0 0 1-.396.511 1.9 1.9 0 0 1-.635.379q-.38.141-.891.141m.401-1.133q.465 0 .805-.184.341-.187.524-.494.188-.308.188-.669v-.771a.7.7 0 0 1-.247.11 3 3 0 0 1-.384.09q-.212.039-.422.068l-.362.051q-.345.048-.618.154a1 1 0 0 0-.43.298.73.73 0 0 0-.158.486q0 .426.311.643.312.218.793.218m9.78-3.814-1.407.153a1.11 1.11 0 0 0-.6-.703 1.4 1.4 0 0 0-.606-.115q-.481 0-.809.209-.324.208-.32.541a.56.56 0 0 0 .209.464q.218.18.716.294l1.116.239q.93.2 1.381.635.456.435.46 1.138a1.78 1.78 0 0 1-.362 1.091q-.354.468-.984.733-.631.264-1.449.264-1.201 0-1.935-.503a2.02 2.02 0 0 1-.873-1.411l1.504-.144q.102.442.435.669.332.225.865.225.549 0 .882-.225.336-.226.336-.559a.58.58 0 0 0-.217-.464q-.213-.183-.665-.281l-1.116-.235q-.942-.196-1.394-.66-.451-.47-.447-1.185a1.67 1.67 0 0 1 .328-1.048q.337-.447.933-.691.601-.246 1.385-.247 1.15 0 1.811.49.665.49.823 1.326m4.31 4.943q-.984 0-1.7-.409a2.77 2.77 0 0 1-1.095-1.168q-.384-.759-.384-1.785 0-1.011.384-1.773a2.9 2.9 0 0 1 1.082-1.193q.695-.43 1.632-.431.605 0 1.142.196.541.192.955.597.417.405.656 1.031.239.622.239 1.483v.473h-5.365v-1.04h3.886a1.66 1.66 0 0 0-.192-.788 1.4 1.4 0 0 0-.524-.55 1.5 1.5 0 0 0-.776-.2q-.472 0-.831.23a1.6 1.6 0 0 0-.558.597q-.195.366-.2.805v.908q0 .57.209.98.209.405.584.622.375.213.877.213.337 0 .61-.094.272-.098.473-.285t.302-.465l1.441.162a2.25 2.25 0 0 1-.52.997q-.38.422-.972.657a3.7 3.7 0 0 1-1.355.23m6.645-.013q-.772 0-1.381-.396t-.963-1.151-.354-1.832q0-1.09.358-1.841.363-.754.976-1.138a2.5 2.5 0 0 1 1.368-.388q.575 0 .946.196.37.192.588.465.217.269.337.507h.064v-3.264h1.546V449h-1.517v-1.031h-.093q-.12.238-.346.507-.225.264-.596.452-.37.187-.933.187m.43-1.266q.49 0 .835-.264.345-.268.524-.746a3.1 3.1 0 0 0 .179-1.112q0-.635-.179-1.103a1.56 1.56 0 0 0-.52-.729q-.34-.26-.839-.26-.516 0-.861.268-.345.269-.52.742a3.1 3.1 0 0 0-.174 1.082q0 .613.174 1.095.18.478.524.755.35.273.857.272M183.917 465h-1.687l3.072-8.727h1.952L190.33 465h-1.687l-2.331-6.938h-.068zm.055-3.422h4.603v1.27h-4.603zm8.982-.413V465h-1.542v-6.545h1.474v1.112h.077a1.87 1.87 0 0 1 .72-.874q.498-.324 1.232-.324.677 0 1.18.29.507.29.784.84.282.55.277 1.333V465h-1.543v-3.929q0-.656-.34-1.027-.337-.37-.934-.371-.405 0-.72.179a1.25 1.25 0 0 0-.49.507 1.7 1.7 0 0 0-.175.806m7.654 3.967q-.623 0-1.121-.221a1.83 1.83 0 0 1-.784-.665q-.286-.44-.286-1.083 0-.553.205-.916.204-.362.558-.579.354-.218.797-.329.447-.114.925-.166.575-.059.933-.106.358-.05.52-.154.166-.106.166-.328v-.025q0-.482-.285-.746-.286-.264-.823-.264-.566 0-.899.247a1.23 1.23 0 0 0-.443.584l-1.44-.205q.17-.597.562-.997.392-.405.959-.605a3.7 3.7 0 0 1 1.253-.205q.473 0 .941.111.469.11.857.367.388.25.622.686.239.434.239 1.086V465h-1.483v-.899h-.051a1.88 1.88 0 0 1-1.032.89 2.6 2.6 0 0 1-.89.141m.4-1.133q.465 0 .806-.184.34-.187.524-.494a1.26 1.26 0 0 0 .187-.669v-.771a.7.7 0 0 1-.247.11 3 3 0 0 1-.383.09q-.213.039-.422.068l-.362.051q-.345.048-.618.154t-.431.298a.73.73 0 0 0-.157.486q0 .426.311.643.31.218.792.218m6.149-7.726V465h-1.542v-8.727zm2.546 11.182q-.316 0-.584-.052a2.2 2.2 0 0 1-.422-.11l.358-1.202q.337.098.601.094a.74.74 0 0 0 .464-.167q.205-.158.345-.528l.132-.354-2.373-6.681h1.636l1.509 4.943h.068l1.513-4.943h1.64l-2.62 7.338a3 3 0 0 1-.486.89q-.303.375-.742.571-.434.201-1.039.201m9.223-9v1.193h-3.762v-1.193zm-2.833-1.569h1.542v6.145q0 .312.094.478.097.16.256.221.157.06.349.06.145 0 .264-.022.124-.021.188-.038l.26 1.206q-.125.043-.354.094a3 3 0 0 1-.554.059 2.5 2.5 0 0 1-1.044-.174 1.63 1.63 0 0 1-.737-.605q-.268-.41-.264-1.023zm4.123 8.114v-6.545h1.543V465zm.776-7.474a.9.9 0 0 1-.631-.243.8.8 0 0 1-.264-.593q0-.35.264-.592a.9.9 0 0 1 .631-.247q.37 0 .631.247a.77.77 0 0 1 .264.592q0 .345-.264.593a.9.9 0 0 1-.631.243m5.208 7.602q-.98 0-1.683-.431a2.87 2.87 0 0 1-1.078-1.188q-.375-.763-.375-1.756 0-.998.384-1.76a2.86 2.86 0 0 1 1.082-1.193q.703-.43 1.662-.431.797 0 1.41.294.619.29.985.823.366.528.417 1.236h-1.474a1.4 1.4 0 0 0-.426-.789q-.333-.32-.891-.319-.472 0-.831.255a1.65 1.65 0 0 0-.558.725q-.196.473-.196 1.133 0 .67.196 1.151.196.477.55.737a1.4 1.4 0 0 0 .839.256q.342 0 .61-.128.272-.132.456-.379.183-.247.251-.601h1.474a2.56 2.56 0 0 1-.409 1.231 2.4 2.4 0 0 1-.963.836q-.609.298-1.432.298m9.244-4.943-1.406.153a1.12 1.12 0 0 0-.601-.703 1.4 1.4 0 0 0-.605-.115q-.482 0-.809.209-.324.208-.32.541a.56.56 0 0 0 .209.464q.217.18.716.294l1.116.239q.929.2 1.381.635.456.435.46 1.138a1.8 1.8 0 0 1-.362 1.091q-.354.468-.985.733-.63.264-1.448.264-1.202 0-1.935-.503-.733-.507-.874-1.411l1.505-.144q.102.442.434.669.333.225.865.225.55 0 .882-.225.337-.226.337-.559a.58.58 0 0 0-.217-.464q-.213-.183-.665-.281l-1.116-.235q-.942-.196-1.394-.66-.451-.47-.447-1.185a1.67 1.67 0 0 1 .328-1.048q.336-.447.933-.691.601-.246 1.385-.247 1.15 0 1.811.49.665.49.822 1.326"/><path fill="#0088cf" stroke="#0088cf" stroke-width=".2" d="M136.889 257.495a11.02 11.02 0 0 0-11.832-7.12 11.014 11.014 0 0 0-9.487 10.033 5.968 5.968 0 0 0 .81 11.903h2.374v4.635a2.81 2.81 0 0 0 2.812 2.812h10.885c.746 0 1.461-.296 1.989-.823a2.82 2.82 0 0 0 .823-1.989v-4.635h.928a7.418 7.418 0 0 0 .715-14.8zm-4.438 20.542H121.55a1.126 1.126 0 0 1-1.125-1.125v-9.664a1.124 1.124 0 0 1 1.125-1.125h10.901a1.125 1.125 0 0 1 1.125 1.125v9.681a1.13 1.13 0 0 1-1.125 1.108Zm-1.654-13.601h-7.594v-1.007a3.797 3.797 0 1 1 7.594 0zm9.433 4.5a5.72 5.72 0 0 1-4.055 1.687h-.929v-3.375a2.81 2.81 0 0 0-2.761-2.812v-1.007a5.48 5.48 0 0 0-5.485-5.484 5.484 5.484 0 0 0-5.484 5.484v1.007a2.81 2.81 0 0 0-2.762 2.812v3.375h-2.374a4.28 4.28 0 0 1-4.1-2.607 4.29 4.29 0 0 1 4.1-5.96.844.844 0 0 0 .844-.838 9.32 9.32 0 0 1 7.985-9.143 9.33 9.33 0 0 1 10.257 6.494.845.845 0 0 0 .793.596 5.732 5.732 0 0 1 3.971 9.771Z"/><path fill="#0088cf" d="M127 269.176a2.252 2.252 0 0 0-2.078 3.384c.277.472.716.826 1.234.998v1.057a.845.845 0 1 0 1.688 0v-1.057a2.25 2.25 0 0 0-.844-4.382m0 1.688c.111 0 .22.033.313.094a.57.57 0 0 1 .239.578.57.57 0 0 1-.154.288.57.57 0 0 1-.288.154.57.57 0 0 1-.578-.239.566.566 0 0 1 .07-.711.57.57 0 0 1 .398-.164m-43.54 25.409 2.271 6.869h.09l2.267-6.869h1.739L86.75 305h-1.952l-3.072-8.727zm9.643 8.855q-.986 0-1.7-.409a2.77 2.77 0 0 1-1.096-1.168q-.383-.759-.383-1.785 0-1.011.383-1.773.388-.767 1.082-1.193.696-.43 1.633-.431.605 0 1.141.196.542.192.955.597.418.405.656 1.031.24.622.239 1.483v.473h-5.365v-1.04h3.886a1.66 1.66 0 0 0-.192-.788 1.4 1.4 0 0 0-.524-.55q-.332-.2-.775-.2-.474 0-.831.23-.358.227-.558.597-.197.366-.2.805v.908q0 .57.208.98.21.405.584.622.375.213.878.213.336 0 .61-.094.272-.098.472-.285t.303-.465l1.44.162q-.135.571-.52.997-.379.422-.971.657-.593.23-1.355.23m5.758-3.963V305h-1.543v-6.545h1.474v1.112h.077q.225-.55.72-.874.499-.324 1.232-.324.678 0 1.18.29.507.29.784.84.282.55.277 1.333V305h-1.542v-3.929q0-.656-.341-1.027-.338-.37-.933-.371-.405 0-.72.179-.312.176-.49.507-.175.333-.175.806m8.198 3.95q-.771 0-1.38-.396t-.963-1.151-.354-1.832q0-1.09.358-1.841.362-.754.976-1.138a2.5 2.5 0 0 1 1.368-.388q.575 0 .946.196.37.192.588.465.217.269.336.507h.064v-3.264h1.547V305h-1.517v-1.031h-.094a2.6 2.6 0 0 1-.345.507q-.225.264-.596.452-.371.187-.934.187m.431-1.266q.49 0 .835-.264.345-.268.524-.746a3.1 3.1 0 0 0 .179-1.112q0-.635-.179-1.103a1.57 1.57 0 0 0-.52-.729q-.34-.26-.839-.26-.516 0-.861.268-.345.269-.52.742a3.1 3.1 0 0 0-.175 1.082q0 .613.175 1.095.18.478.524.755.35.273.857.272m7.554 1.279q-.958 0-1.662-.422a2.9 2.9 0 0 1-1.091-1.18q-.383-.759-.383-1.773t.383-1.777a2.86 2.86 0 0 1 1.091-1.185q.703-.422 1.662-.422t1.662.422 1.087 1.185q.387.763.388 1.777 0 1.014-.388 1.773a2.84 2.84 0 0 1-1.087 1.18q-.703.422-1.662.422m.009-1.236q.52 0 .869-.285.35-.29.52-.776.175-.486.175-1.082 0-.601-.175-1.087a1.7 1.7 0 0 0-.52-.78q-.35-.29-.869-.29-.533 0-.887.29a1.75 1.75 0 0 0-.524.78q-.17.486-.17 1.087 0 .596.17 1.082.175.486.524.776.354.285.887.285M119.49 305v-6.545h1.496v1.09h.068a1.63 1.63 0 0 1 1.615-1.184q.127 0 .285.013.162.008.269.029v1.419a1.7 1.7 0 0 0-.311-.059 3 3 0 0 0-.405-.03q-.422 0-.759.183a1.35 1.35 0 0 0-.716 1.236V305zm9.277-8.727V305h-1.543v-8.727zm4.441 8.855q-.958 0-1.662-.422a2.9 2.9 0 0 1-1.091-1.18q-.383-.759-.383-1.773t.383-1.777a2.86 2.86 0 0 1 1.091-1.185q.704-.422 1.662-.422.959 0 1.662.422.703.421 1.087 1.185.387.763.388 1.777 0 1.014-.388 1.773a2.84 2.84 0 0 1-1.087 1.18q-.703.422-1.662.422m.009-1.236q.52 0 .869-.285.35-.29.52-.776.175-.486.175-1.082 0-.601-.175-1.087a1.7 1.7 0 0 0-.52-.78q-.35-.29-.869-.29-.533 0-.887.29a1.75 1.75 0 0 0-.524.78q-.17.486-.17 1.087 0 .596.17 1.082.175.486.524.776.354.285.887.285m7.292 1.236q-.98 0-1.683-.431a2.87 2.87 0 0 1-1.078-1.188q-.375-.763-.375-1.756 0-.998.383-1.76a2.87 2.87 0 0 1 1.083-1.193q.702-.43 1.662-.431.797 0 1.41.294.618.29.984.823.367.528.418 1.236h-1.474a1.4 1.4 0 0 0-.427-.789q-.332-.32-.89-.319-.473 0-.831.255a1.63 1.63 0 0 0-.558.725q-.196.473-.196 1.133 0 .67.196 1.151.196.477.549.737.359.256.84.256.34 0 .609-.128.273-.132.456-.379t.252-.601h1.474a2.6 2.6 0 0 1-.409 1.231 2.43 2.43 0 0 1-.963.836q-.61.298-1.432.298m5.477-2.182-.004-1.862h.247l2.352-2.629h1.803l-2.894 3.221h-.319zM144.58 305v-8.727h1.542V305zm4.108 0-2.131-2.979 1.04-1.086 2.936 4.065zm6.363-4.27V302h-3.929v-1.27zm1.622 4.27v-6.545h1.543V305zm.776-7.474a.9.9 0 0 1-.631-.243.8.8 0 0 1-.264-.593q0-.35.264-.592a.9.9 0 0 1 .631-.247q.37 0 .631.247a.77.77 0 0 1 .264.592q0 .345-.264.593a.9.9 0 0 1-.631.243m3.896 3.639V305h-1.543v-6.545h1.475v1.112h.077q.225-.55.72-.874.498-.324 1.231-.324.678 0 1.181.29.507.29.784.84.281.55.277 1.333V305h-1.543v-3.929q0-.656-.341-1.027-.336-.37-.933-.371-.405 0-.72.179a1.24 1.24 0 0 0-.49.507q-.175.333-.175.806m7.581 2.642-.055.469q-.06.537-.214 1.09-.148.56-.315 1.027-.166.47-.268.738h-1.04l.162-.708q.107-.447.204-1.005.099-.559.132-1.134l.03-.477zm-77.214 13.358V321H90.17v-6.545h1.474v1.112h.077q.225-.55.72-.874.498-.324 1.231-.324.679 0 1.18.29.508.29.785.84.281.55.277 1.333V321H94.37v-3.929q0-.656-.34-1.027-.337-.37-.934-.371-.405 0-.72.179-.31.176-.49.507-.175.333-.175.806m8.625 3.963q-.958 0-1.662-.422a2.87 2.87 0 0 1-1.09-1.18q-.384-.759-.384-1.773t.383-1.777a2.86 2.86 0 0 1 1.091-1.185q.703-.422 1.662-.422t1.662.422 1.087 1.185q.388.763.388 1.777t-.388 1.773a2.84 2.84 0 0 1-1.087 1.18q-.703.422-1.662.422m.009-1.236q.52 0 .869-.285.35-.29.52-.776.175-.486.175-1.082 0-.601-.175-1.087a1.7 1.7 0 0 0-.52-.78q-.35-.29-.869-.29-.532 0-.887.29a1.75 1.75 0 0 0-.524.78q-.17.486-.17 1.087 0 .596.17 1.082.175.486.524.776.354.285.887.285m7.705-5.437v1.193h-3.762v-1.193zm-2.833-1.569h1.542v6.145q0 .312.094.478.097.16.256.221.157.06.349.06.145 0 .264-.022.124-.021.188-.038l.26 1.206q-.124.043-.354.094a3 3 0 0 1-.554.059 2.5 2.5 0 0 1-1.044-.174 1.63 1.63 0 0 1-.737-.605q-.269-.41-.264-1.023zm8.289 8.114h-1.688l3.073-8.727h1.952L119.92 321h-1.687l-2.331-6.938h-.068zm.055-3.422h4.603v1.27h-4.603zm8.982-5.305V321h-1.542v-8.727zm5.554 4.457V318h-3.929v-1.27zm3.165.435V321h-1.543v-6.545h1.475v1.112h.076q.226-.55.721-.874.499-.324 1.231-.324.678 0 1.181.29.507.29.784.84.281.55.277 1.333V321h-1.543v-3.929q0-.656-.341-1.027-.336-.37-.933-.371-.405 0-.72.179a1.24 1.24 0 0 0-.49.507q-.175.333-.175.806m7.653 3.967a2.7 2.7 0 0 1-1.12-.221 1.83 1.83 0 0 1-.784-.665q-.286-.44-.286-1.083 0-.553.205-.916.204-.362.558-.579.353-.218.797-.329.447-.114.924-.166.576-.059.934-.106.358-.05.52-.154.166-.106.166-.328v-.025q0-.482-.286-.746-.285-.264-.822-.264-.567 0-.899.247a1.23 1.23 0 0 0-.444.584l-1.44-.205q.17-.597.563-.997a2.44 2.44 0 0 1 .958-.605 3.7 3.7 0 0 1 1.253-.205q.474 0 .942.111.469.11.857.367.387.25.622.686.238.434.238 1.086V321h-1.483v-.899h-.051a1.9 1.9 0 0 1-.396.511 1.9 1.9 0 0 1-.635.379q-.38.141-.891.141m.401-1.133q.465 0 .805-.184.341-.187.524-.494.188-.308.188-.669v-.771a.7.7 0 0 1-.247.11 3 3 0 0 1-.384.09q-.213.038-.422.068l-.362.051q-.345.048-.618.154a1 1 0 0 0-.43.298.73.73 0 0 0-.158.486q0 .426.311.643.312.218.793.218m7.875-5.544v1.193h-3.763v-1.193zm-2.834-1.569h1.543v6.145q0 .312.093.478a.5.5 0 0 0 .256.221q.158.06.35.06.144 0 .264-.022.123-.021.187-.038l.26 1.206q-.123.043-.353.094a3 3 0 0 1-.554.059 2.5 2.5 0 0 1-1.044-.174 1.63 1.63 0 0 1-.738-.605q-.268-.41-.264-1.023zm4.124 8.114v-6.545h1.543V321zm.776-7.474a.9.9 0 0 1-.631-.243.8.8 0 0 1-.264-.593q0-.35.264-.592a.9.9 0 0 1 .631-.247q.37 0 .63.247a.78.78 0 0 1 .265.592q0 .345-.265.593a.9.9 0 0 1-.63.243m8.2.929-2.33 6.545h-1.705l-2.331-6.545h1.645l1.504 4.862h.068l1.509-4.862zm3.742 6.673q-.984 0-1.7-.409a2.77 2.77 0 0 1-1.095-1.168q-.384-.759-.384-1.785 0-1.011.384-1.773a2.9 2.9 0 0 1 1.082-1.193q.694-.43 1.632-.431.605 0 1.142.196.541.192.955.597.417.405.656 1.031.239.622.239 1.483v.473h-5.365v-1.04h3.886a1.66 1.66 0 0 0-.192-.788 1.4 1.4 0 0 0-.524-.55 1.5 1.5 0 0 0-.776-.2q-.473 0-.831.23a1.6 1.6 0 0 0-.558.597q-.195.366-.2.805v.908q0 .57.209.98.209.405.584.622.375.213.877.213.337 0 .61-.094.273-.098.473-.285t.302-.465l1.441.162a2.25 2.25 0 0 1-.52.997q-.38.422-.972.657a3.7 3.7 0 0 1-1.355.23"/><g fill="#0088cf" stroke="#0088cf" stroke-width=".3" clip-path="url(#e)"><path d="M219.698 103.111a7.126 7.126 0 0 0-6.948-5.57 7 7 0 0 0-2.299.385 8.35 8.35 0 0 0-6.805-3.551c-4.584 0-8.313 3.729-8.313 8.313q0 .275.02.549A7.886 7.886 0 0 0 189 111a7.89 7.89 0 0 0 7.04 7.864.791.791 0 1 0 .171-1.574 6.31 6.31 0 0 1-5.628-6.291 6.31 6.31 0 0 1 5.728-6.305.79.79 0 0 0 .704-.928 6 6 0 0 1-.098-1.079c0-3.71 3.018-6.73 6.729-6.73a6.76 6.76 0 0 1 5.808 3.345c.205.35.642.49 1.012.321a5.5 5.5 0 0 1 2.284-.499 5.54 5.54 0 0 1 5.493 4.848c.049.396.441.694.84.694a6.34 6.34 0 0 1 6.334 6.333c0 2.975-2.107 5.579-5.009 6.192a.79.79 0 1 0 .328 1.549c3.63-.767 6.265-4.022 6.265-7.741 0-4.142-3.198-7.551-7.302-7.889z"/><path d="M215.917 116.543v-.792a2.38 2.38 0 0 0-2.375-2.375h-6.47a.8.8 0 0 1-.56-.232l-.655-.655a2.36 2.36 0 0 0-1.679-.696h-3.303a2.38 2.38 0 0 0-2.375 2.375v11.028l.012-.008a2.33 2.33 0 0 0 .438 1.452 2.35 2.35 0 0 0 1.927.986h12.928a2.37 2.37 0 0 0 2.253-1.624l2.11-6.334a2.35 2.35 0 0 0-.326-2.139 2.35 2.35 0 0 0-1.925-.986Zm-15.042-3.167h3.303c.208 0 .412.085.56.232l.655.656a2.36 2.36 0 0 0 1.679.696h6.47c.437 0 .791.355.791.791v.792h-11.346a2.37 2.37 0 0 0-2.253 1.624l-.651 1.954v-5.953c0-.436.355-.792.792-.792Zm15.791 5.792-2.11 6.333a.79.79 0 0 1-.751.542h-12.928a.79.79 0 0 1-.643-.329.79.79 0 0 1-.109-.714l2.11-6.333a.79.79 0 0 1 .751-.541h12.928c.258 0 .492.119.643.329.151.209.19.469.109.713Z"/></g><path fill="#0088cf" d="M157.824 152h-2.957v-8.727h3.017q1.299 0 2.233.524a3.5 3.5 0 0 1 1.44 1.496q.503.976.503 2.335 0 1.363-.507 2.344a3.5 3.5 0 0 1-1.453 1.504q-.947.524-2.276.524m-1.376-1.368h1.299q.912 0 1.522-.332.609-.337.916-1.002.307-.67.307-1.67 0-1.002-.307-1.662a2.1 2.1 0 0 0-.908-.993q-.597-.332-1.483-.332h-1.346zm8.929 1.5a2.7 2.7 0 0 1-1.12-.221 1.84 1.84 0 0 1-.785-.665q-.285-.44-.285-1.083 0-.553.205-.916.204-.362.558-.579.353-.218.797-.329.447-.115.924-.166.576-.059.934-.106.358-.05.519-.154.167-.106.167-.328v-.025q0-.482-.286-.746-.285-.264-.822-.264-.567 0-.899.247a1.23 1.23 0 0 0-.444.584l-1.44-.205q.17-.597.563-.997a2.44 2.44 0 0 1 .958-.605 3.7 3.7 0 0 1 1.253-.205q.473 0 .942.111.469.11.856.367.388.25.623.686.238.434.238 1.086V152h-1.483v-.899h-.051a1.9 1.9 0 0 1-.396.511 1.9 1.9 0 0 1-.635.379q-.38.141-.891.141m.401-1.133q.465 0 .805-.184.341-.187.524-.494.188-.308.188-.669v-.771a.7.7 0 0 1-.247.11 3 3 0 0 1-.384.09q-.212.038-.422.068l-.362.051q-.345.048-.618.154a1 1 0 0 0-.43.298.73.73 0 0 0-.158.486q0 .426.311.643.312.218.793.218m7.875-5.544v1.193h-3.763v-1.193zm-2.834-1.569h1.543v6.145q0 .312.093.478a.5.5 0 0 0 .256.221q.158.06.35.06.144 0 .264-.022.124-.021.187-.038l.26 1.206q-.123.043-.353.094a3 3 0 0 1-.554.059 2.5 2.5 0 0 1-1.045-.174 1.63 1.63 0 0 1-.737-.605q-.268-.41-.264-1.023zm6.008 8.246q-.623 0-1.121-.221a1.83 1.83 0 0 1-.784-.665q-.286-.44-.286-1.083 0-.553.205-.916.204-.362.558-.579.353-.218.797-.329.447-.115.925-.166.575-.059.933-.106.357-.05.52-.154.166-.106.166-.328v-.025q0-.482-.286-.746-.285-.264-.822-.264-.567 0-.899.247a1.2 1.2 0 0 0-.443.584l-1.441-.205q.17-.597.563-.997.392-.405.959-.605a3.7 3.7 0 0 1 1.252-.205q.474 0 .942.111.469.11.857.367.387.25.622.686.238.434.238 1.086V152H178.8v-.899h-.052a1.85 1.85 0 0 1-1.031.89q-.38.141-.89.141m.4-1.133q.465 0 .805-.184.341-.187.525-.494a1.26 1.26 0 0 0 .187-.669v-.771a.7.7 0 0 1-.247.11 3 3 0 0 1-.384.09q-.213.038-.421.068l-.363.051q-.345.048-.618.154-.272.106-.43.298a.73.73 0 0 0-.158.486q0 .426.311.643.312.218.793.218m10.903-1.931h1.432l.848 1.1.605.716 1.453 1.866h-1.534l-.989-1.253-.422-.596zm4.547-1.432q0 1.411-.529 2.417-.523 1.001-1.432 1.534-.903.532-2.049.532t-2.054-.532q-.904-.537-1.432-1.539-.525-1.005-.524-2.412 0-1.41.524-2.412.528-1.005 1.432-1.538.908-.533 2.054-.533t2.049.533q.909.533 1.432 1.538.53 1.002.529 2.412m-1.59 0q0-.993-.311-1.674-.307-.687-.852-1.036a2.26 2.26 0 0 0-1.257-.354q-.713 0-1.257.354-.546.35-.857 1.036-.306.681-.307 1.674 0 .993.307 1.679.31.682.857 1.036.544.35 1.257.349a2.3 2.3 0 0 0 1.257-.349q.545-.354.852-1.036.31-.686.311-1.679m7.2 1.611v-3.792h1.542V152h-1.495v-1.163h-.069q-.22.55-.728.899-.503.35-1.24.349-.644 0-1.138-.285a2 2 0 0 1-.767-.84q-.277-.554-.277-1.338v-4.167h1.542v3.929q0 .621.341.988.342.366.895.367.342 0 .661-.167.32-.165.524-.494.209-.331.209-.831m5.012 2.885q-.622 0-1.121-.221a1.84 1.84 0 0 1-.784-.665q-.285-.44-.285-1.083 0-.553.204-.916.205-.362.559-.579.353-.218.797-.329.447-.115.924-.166.576-.059.933-.106.358-.05.52-.154.167-.106.167-.328v-.025q0-.482-.286-.746-.285-.264-.822-.264-.567 0-.9.247a1.23 1.23 0 0 0-.443.584l-1.44-.205q.17-.597.562-.997.393-.405.959-.605a3.7 3.7 0 0 1 1.253-.205q.472 0 .942.111.469.11.856.367.388.25.623.686.238.434.238 1.086V152h-1.483v-.899h-.051a1.9 1.9 0 0 1-.396.511q-.252.234-.635.379-.38.141-.891.141m.401-1.133q.464 0 .805-.184.34-.187.524-.494.188-.308.188-.669v-.771a.7.7 0 0 1-.247.11 3 3 0 0 1-.384.09q-.213.038-.422.068l-.362.051q-.345.048-.618.154a1 1 0 0 0-.43.298.73.73 0 0 0-.158.486q0 .426.311.643.312.218.793.218m6.149-7.726V152h-1.543v-8.727zm1.586 8.727v-6.545h1.543V152zm.776-7.474a.9.9 0 0 1-.631-.243.8.8 0 0 1-.264-.593q0-.35.264-.592a.9.9 0 0 1 .631-.247q.37 0 .63.247a.77.77 0 0 1 .265.592q0 .345-.265.593a.9.9 0 0 1-.63.243m5.622.929v1.193h-3.763v-1.193zm-2.834-1.569h1.542v6.145q0 .312.094.478a.5.5 0 0 0 .256.221q.157.06.349.06.146 0 .264-.022.124-.021.188-.038l.26 1.206q-.124.043-.354.094-.225.051-.554.059a2.5 2.5 0 0 1-1.044-.174 1.63 1.63 0 0 1-.737-.605q-.269-.41-.264-1.023zm5.082 10.569a3 3 0 0 1-.583-.052 2.2 2.2 0 0 1-.422-.11l.358-1.202q.336.098.601.094a.74.74 0 0 0 .464-.167q.205-.157.345-.528l.132-.354-2.373-6.681h1.636l1.509 4.943h.068l1.513-4.943h1.64l-2.62 7.338a3 3 0 0 1-.486.89q-.303.375-.742.571-.434.201-1.04.201m7.357-3.648-.056.469a7 7 0 0 1-.213 1.09q-.149.56-.315 1.027-.166.47-.269.738h-1.039l.162-.708q.107-.447.204-1.005.098-.559.132-1.134l.03-.477zm9.246-5.135a1.17 1.17 0 0 0-.503-.869q-.439-.312-1.142-.312-.495 0-.848.15a1.25 1.25 0 0 0-.541.404 1 1 0 0 0-.192.584q0 .273.123.473.129.2.346.341.217.137.481.23.264.094.533.158l.818.205q.495.114.95.311.46.195.823.494.366.298.579.72t.213.989q0 .766-.392 1.351-.392.579-1.133.907-.738.324-1.786.324-1.018 0-1.768-.315a2.63 2.63 0 0 1-1.168-.921q-.417-.605-.451-1.474h1.555q.034.456.281.758.247.303.644.452.4.15.895.149.514 0 .903-.153.392-.157.614-.435.221-.28.225-.656a.83.83 0 0 0-.2-.563 1.5 1.5 0 0 0-.55-.375 5 5 0 0 0-.818-.272l-.993-.256q-1.078-.277-1.704-.839-.622-.567-.622-1.505 0-.77.417-1.351a2.77 2.77 0 0 1 1.147-.899q.724-.324 1.64-.324.93 0 1.628.324.703.32 1.104.891.4.567.413 1.304zm2.982 6.328v-6.545h1.542V152zm.775-7.474a.9.9 0 0 1-.63-.243.78.78 0 0 1-.265-.593q0-.35.265-.592a.9.9 0 0 1 .63-.247q.371 0 .631.247a.77.77 0 0 1 .264.592q0 .345-.264.593a.9.9 0 0 1-.631.243m3.896-1.253V152h-1.542v-8.727zm4.442 8.855q-.96 0-1.662-.422a2.86 2.86 0 0 1-1.091-1.18q-.384-.759-.384-1.773t.384-1.777a2.85 2.85 0 0 1 1.091-1.185q.702-.422 1.662-.422.959 0 1.662.422.702.421 1.086 1.185.388.762.388 1.777t-.388 1.773a2.84 2.84 0 0 1-1.086 1.18q-.703.422-1.662.422m.008-1.236q.52 0 .869-.285.35-.29.52-.776.175-.486.175-1.082 0-.601-.175-1.087a1.7 1.7 0 0 0-.52-.78q-.349-.29-.869-.29-.532 0-.886.29a1.74 1.74 0 0 0-.524.78 3.3 3.3 0 0 0-.171 1.087q0 .596.171 1.082.174.486.524.776.354.285.886.285m9.611-3.707-1.407.153a1.1 1.1 0 0 0-.209-.4 1 1 0 0 0-.392-.303 1.4 1.4 0 0 0-.605-.115q-.482 0-.809.209-.324.208-.32.541a.56.56 0 0 0 .209.464q.217.18.716.294l1.116.239q.93.2 1.381.635.456.435.46 1.138a1.78 1.78 0 0 1-.362 1.091q-.354.468-.984.733-.631.264-1.449.264-1.202 0-1.935-.503-.733-.507-.874-1.411l1.505-.144q.102.442.434.669.333.225.865.225.55 0 .883-.225.336-.226.336-.559a.58.58 0 0 0-.217-.464q-.213-.183-.665-.281l-1.116-.235q-.942-.196-1.394-.66-.451-.47-.447-1.185a1.67 1.67 0 0 1 .328-1.048q.336-.448.933-.691.601-.246 1.385-.247 1.15 0 1.811.49.664.49.823 1.326m-106.382 20.943q-.895 0-1.539-.324a2.44 2.44 0 0 1-.992-.874 2.3 2.3 0 0 1-.346-1.248q0-.525.213-.929.218-.405.597-.75.384-.345.886-.686l1.547-1.053q.341-.222.516-.469a.96.96 0 0 0 .179-.579q0-.281-.239-.533-.234-.25-.647-.251a.916.916 0 0 0-.934.912q0 .285.158.579.162.294.418.61l.554.669 4.095 4.798h-1.671l-3.4-3.895a60 60 0 0 1-.733-.873 4.7 4.7 0 0 1-.576-.895 2.4 2.4 0 0 1-.221-1.015q0-.617.285-1.103.286-.49.797-.772.516-.28 1.206-.281.69 0 1.185.273.494.273.763.724.268.452.268.985 0 .618-.307 1.108a3.2 3.2 0 0 1-.852.882l-1.764 1.291q-.435.315-.622.639-.188.32-.188.546 0 .345.175.626t.49.452q.32.166.746.166.468 0 .924-.209.456-.213.831-.605t.597-.937a3.2 3.2 0 0 0 .222-1.219h1.325q0 .827-.183 1.44-.184.61-.473 1.031a3 3 0 0 1-.614.669 7 7 0 0 0-.196.145 5 5 0 0 1-.196.145 2.9 2.9 0 0 1-1.078.614q-.613.195-1.206.196m9.975-8.855V168h-1.581v-8.727zm3.186 4.892V168h-1.543v-6.545h1.475v1.112h.077q.225-.55.72-.874.498-.324 1.231-.324.678 0 1.181.29.507.29.784.84.281.55.277 1.333V168h-1.543v-3.929q0-.656-.341-1.027-.336-.37-.933-.371-.405 0-.72.179a1.24 1.24 0 0 0-.49.507q-.175.333-.175.806m8.625 3.963q-.98 0-1.683-.431a2.87 2.87 0 0 1-1.078-1.188q-.375-.763-.375-1.756 0-.998.383-1.76a2.87 2.87 0 0 1 1.083-1.193q.702-.43 1.662-.431.797 0 1.41.294.618.29.984.823.367.528.418 1.236h-1.474a1.4 1.4 0 0 0-.427-.789q-.332-.32-.89-.319-.474 0-.831.255a1.63 1.63 0 0 0-.558.725q-.196.473-.196 1.133 0 .67.196 1.151.196.477.549.737.359.256.84.256.34 0 .609-.128.273-.132.456-.379t.252-.601h1.474a2.6 2.6 0 0 1-.409 1.231 2.43 2.43 0 0 1-.963.836q-.61.297-1.432.298m6.926 0q-.959 0-1.662-.422a2.86 2.86 0 0 1-1.091-1.18q-.384-.759-.384-1.773t.384-1.777a2.85 2.85 0 0 1 1.091-1.185q.703-.422 1.662-.422t1.662.422q.703.421 1.086 1.185.388.762.388 1.777t-.388 1.773a2.84 2.84 0 0 1-1.086 1.18q-.703.422-1.662.422m.008-1.236q.52 0 .87-.285.35-.29.52-.776.174-.486.174-1.082 0-.601-.174-1.087a1.7 1.7 0 0 0-.52-.78q-.35-.29-.87-.29-.532 0-.886.29a1.74 1.74 0 0 0-.524.78 3.3 3.3 0 0 0-.171 1.087q0 .596.171 1.082.174.486.524.776.354.285.886.285m4.437 1.108v-6.545h1.475v1.112h.077q.204-.563.677-.878.474-.32 1.129-.32.666 0 1.121.324.46.32.648.874h.068q.217-.546.733-.87.52-.328 1.232-.328.903 0 1.474.571t.571 1.667V168h-1.547v-4.155q0-.61-.324-.89a1.15 1.15 0 0 0-.792-.286q-.559 0-.874.349-.31.346-.311.9V168h-1.513v-4.219q0-.507-.307-.809-.302-.303-.792-.303a1.1 1.1 0 0 0-.605.17 1.2 1.2 0 0 0-.435.473 1.5 1.5 0 0 0-.162.708V168zm10.77 2.455v-9h1.517v1.082h.09q.119-.239.336-.507a1.8 1.8 0 0 1 .588-.465q.371-.196.946-.196.759 0 1.368.388.614.384.972 1.138.362.75.362 1.841 0 1.078-.354 1.832-.354.755-.963 1.151a2.5 2.5 0 0 1-1.38.396q-.563 0-.934-.187a1.9 1.9 0 0 1-.596-.452 3 3 0 0 1-.345-.507h-.064v3.486zm1.513-5.728q0 .636.179 1.112.183.478.524.746.345.264.835.264.512 0 .857-.272.345-.277.52-.755.179-.481.179-1.095a3.1 3.1 0 0 0-.175-1.082 1.63 1.63 0 0 0-.52-.742q-.345-.268-.861-.268-.494 0-.839.26t-.524.729a3.1 3.1 0 0 0-.175 1.103m7.53-5.454V168h-1.543v-8.727zm4.484 8.855q-.985 0-1.701-.409a2.8 2.8 0 0 1-1.095-1.168q-.383-.759-.383-1.785 0-1.011.383-1.773.388-.767 1.083-1.193.695-.43 1.632-.431.605 0 1.142.196.541.192.954.597.418.405.657 1.031.238.622.238 1.483v.473h-5.365v-1.04h3.886a1.65 1.65 0 0 0-.191-.788 1.4 1.4 0 0 0-.524-.55 1.5 1.5 0 0 0-.776-.2q-.472 0-.831.23-.359.226-.558.597a1.7 1.7 0 0 0-.201.805v.908q0 .57.209.98.21.405.584.622.375.213.878.213.337 0 .609-.094.273-.098.473-.285.201-.188.303-.465l1.44.162a2.24 2.24 0 0 1-.52.997q-.378.422-.971.657-.593.23-1.355.23m7.484-6.673v1.193h-3.763v-1.193zm-2.834-1.569h1.542v6.145q0 .312.094.478a.5.5 0 0 0 .256.221q.157.06.349.06.145 0 .265-.022.123-.021.187-.038l.26 1.206q-.123.043-.354.094-.225.051-.554.059a2.5 2.5 0 0 1-1.044-.174 1.63 1.63 0 0 1-.737-.605q-.268-.41-.264-1.023zm6.951 8.242q-.984 0-1.7-.409a2.77 2.77 0 0 1-1.095-1.168q-.384-.759-.384-1.785 0-1.011.384-1.773a2.9 2.9 0 0 1 1.082-1.193q.695-.43 1.632-.431.606 0 1.142.196.541.192.955.597.417.405.656 1.031.239.622.239 1.483v.473h-5.365v-1.04h3.886a1.66 1.66 0 0 0-.192-.788 1.4 1.4 0 0 0-.524-.55q-.332-.2-.775-.2-.474 0-.831.23-.358.226-.559.597-.195.367-.2.805v.908q0 .57.209.98.209.405.584.622.374.213.878.213.336 0 .609-.094.272-.098.473-.285.2-.188.302-.465l1.441.162a2.24 2.24 0 0 1-.52.997q-.38.422-.972.657a3.7 3.7 0 0 1-1.355.23m8.381-.128h-1.687l3.072-8.727h1.952l3.077 8.727h-1.688l-2.331-6.938h-.068zm.056-3.422h4.602v1.27h-4.602zm12.507-1.393-1.407.153a1.11 1.11 0 0 0-.6-.703 1.4 1.4 0 0 0-.605-.115q-.482 0-.81.209-.324.208-.32.541a.56.56 0 0 0 .209.464q.218.18.716.294l1.116.239q.93.2 1.381.635.457.435.46 1.138a1.77 1.77 0 0 1-.362 1.091q-.354.468-.984.733-.631.264-1.449.264-1.201 0-1.935-.503a2.02 2.02 0 0 1-.873-1.411l1.504-.144q.102.442.435.669.332.225.865.225.549 0 .882-.225.336-.226.336-.559a.58.58 0 0 0-.217-.464q-.213-.183-.665-.281l-1.116-.235q-.942-.196-1.394-.66-.451-.47-.447-1.185a1.67 1.67 0 0 1 .328-1.048q.337-.448.933-.691.601-.246 1.385-.247 1.15 0 1.811.49.665.49.823 1.326m6.586 0-1.407.153a1.11 1.11 0 0 0-.6-.703 1.4 1.4 0 0 0-.606-.115q-.481 0-.809.209-.324.208-.32.541a.56.56 0 0 0 .209.464q.218.18.716.294l1.116.239q.93.2 1.381.635.456.435.46 1.138a1.78 1.78 0 0 1-.362 1.091q-.354.468-.984.733-.631.264-1.449.264-1.201 0-1.935-.503a2.02 2.02 0 0 1-.873-1.411l1.504-.144q.102.442.435.669.331.225.865.225.549 0 .882-.225.336-.226.336-.559a.58.58 0 0 0-.217-.464q-.213-.183-.665-.281l-1.116-.235q-.942-.196-1.394-.66-.451-.47-.447-1.185a1.67 1.67 0 0 1 .328-1.048q.336-.448.933-.691.601-.246 1.385-.247 1.15 0 1.811.49.665.49.823 1.326m4.31 4.943q-.984 0-1.7-.409a2.77 2.77 0 0 1-1.095-1.168q-.384-.759-.384-1.785 0-1.011.384-1.773a2.9 2.9 0 0 1 1.082-1.193q.694-.43 1.632-.431.605 0 1.142.196.541.192.955.597.417.405.656 1.031.239.622.239 1.483v.473h-5.366v-1.04h3.887a1.66 1.66 0 0 0-.192-.788 1.4 1.4 0 0 0-.524-.55 1.5 1.5 0 0 0-.776-.2q-.473 0-.831.23a1.6 1.6 0 0 0-.558.597 1.7 1.7 0 0 0-.2.805v.908q0 .57.209.98.209.405.584.622.375.213.877.213.337 0 .61-.094.273-.098.473-.285.2-.188.302-.465l1.441.162a2.25 2.25 0 0 1-.52.997q-.38.422-.972.657a3.7 3.7 0 0 1-1.355.23m7.484-6.673v1.193h-3.763v-1.193zm-2.834-1.569h1.543v6.145q0 .312.094.478.097.16.255.221.158.06.35.06.144 0 .264-.022.123-.021.187-.038l.26 1.206q-.123.043-.353.094a3 3 0 0 1-.554.059 2.5 2.5 0 0 1-1.044-.174 1.63 1.63 0 0 1-.738-.605q-.268-.41-.264-1.023zm9.204 3.299-1.407.153a1.11 1.11 0 0 0-.6-.703 1.4 1.4 0 0 0-.605-.115q-.482 0-.81.209-.324.208-.32.541a.56.56 0 0 0 .209.464q.218.18.716.294l1.116.239q.93.2 1.381.635.457.435.46 1.138a1.77 1.77 0 0 1-.362 1.091q-.354.468-.984.733-.632.264-1.449.264-1.202 0-1.935-.503a2.02 2.02 0 0 1-.873-1.411l1.504-.144q.102.442.435.669.332.225.865.225.549 0 .882-.225.336-.226.336-.559a.58.58 0 0 0-.217-.464q-.213-.183-.665-.281l-1.116-.235q-.942-.196-1.394-.66-.452-.47-.447-1.185a1.67 1.67 0 0 1 .328-1.048q.337-.448.933-.691.601-.246 1.385-.247 1.15 0 1.811.49.665.49.823 1.326"/><g filter="url(#f)"><circle cx="293" cy="293" r="94" fill="#fff"/></g><path fill="#1c2f43" d="M241.085 261.455V276h-2.635v-14.545zm11.362 6.519-2.344.256a1.9 1.9 0 0 0-.348-.668 1.7 1.7 0 0 0-.653-.504q-.412-.192-1.009-.192-.802 0-1.349.348-.54.348-.533.902a.95.95 0 0 0 .348.775q.363.298 1.193.49l1.861.397q1.549.335 2.301 1.059.76.725.767 1.896a2.96 2.96 0 0 1-.603 1.818q-.59.781-1.641 1.222t-2.415.44q-2.003 0-3.224-.838-1.222-.845-1.456-2.351l2.507-.241q.17.738.725 1.115.553.376 1.441.376.916 0 1.47-.376.561-.376.562-.931a.97.97 0 0 0-.363-.774q-.354-.305-1.108-.469l-1.86-.39q-1.57-.327-2.323-1.101-.753-.781-.746-1.974-.006-1.009.547-1.748.561-.745 1.556-1.15 1.001-.412 2.308-.412 1.917 0 3.018.817 1.108.816 1.371 2.208m8.913 12.117q-.525 0-.973-.085a3.6 3.6 0 0 1-.703-.185l.597-2.003q.561.163 1.001.156.441-.007.774-.277.341-.262.576-.88l.22-.59-3.956-11.136h2.727l2.514 8.239h.114l2.521-8.239h2.735l-4.368 12.23a4.9 4.9 0 0 1-.81 1.484 3.3 3.3 0 0 1-1.236.952q-.724.334-1.733.334m14.313-3.878q-1.597 0-2.77-.703a4.8 4.8 0 0 1-1.818-1.967q-.639-1.264-.639-2.955 0-1.69.639-2.962a4.77 4.77 0 0 1 1.818-1.974q1.173-.703 2.77-.703 1.599 0 2.77.703a4.7 4.7 0 0 1 1.811 1.974q.647 1.272.647 2.962t-.647 2.955a4.73 4.73 0 0 1-1.811 1.967q-1.171.703-2.77.703m.015-2.06q.866 0 1.448-.475.583-.483.867-1.293.291-.81.291-1.804 0-1.001-.291-1.811-.284-.817-.867-1.3-.582-.483-1.448-.483-.888 0-1.478.483-.582.483-.873 1.3-.284.81-.284 1.811 0 .994.284 1.804.291.81.873 1.293.59.475 1.478.475m14.348-2.741v-6.321h2.571V276h-2.493v-1.939H290a3.3 3.3 0 0 1-1.214 1.499q-.839.582-2.067.582-1.072 0-1.896-.476-.817-.483-1.279-1.399-.46-.923-.461-2.23v-6.946h2.571v6.548q0 1.037.568 1.648.568.61 1.491.611.568 0 1.101-.277.533-.278.874-.824.348-.554.348-1.385m5.215 4.588v-10.909h2.493v1.818h.113q.299-.945 1.023-1.456a2.8 2.8 0 0 1 1.669-.518q.213 0 .476.021.27.014.447.05v2.365a2.7 2.7 0 0 0-.518-.1 5 5 0 0 0-.675-.049q-.703 0-1.264.305a2.24 2.24 0 0 0-.874.831 2.34 2.34 0 0 0-.319 1.229V276zm16.939.192q-1.285 0-2.302-.661-1.015-.66-1.605-1.917t-.589-3.054q0-1.818.596-3.069.604-1.257 1.627-1.896a4.2 4.2 0 0 1 2.28-.646q.959 0 1.576.327.618.32.981.774.361.447.561.845h.106v-5.44h2.578V276h-2.528v-1.719h-.156a4.4 4.4 0 0 1-.576.845 3.2 3.2 0 0 1-.994.753q-.618.313-1.555.313m.717-2.11q.816 0 1.392-.44.576-.448.874-1.243t.298-1.854q0-1.057-.298-1.839-.292-.781-.867-1.215-.568-.433-1.399-.433-.86 0-1.435.448-.575.447-.866 1.235-.291.789-.291 1.804 0 1.023.291 1.826.298.795.873 1.257.584.454 1.428.454m10.971 2.138q-1.037 0-1.868-.369a3.05 3.05 0 0 1-1.307-1.108q-.475-.732-.475-1.804 0-.924.341-1.527.34-.604.93-.966a4.7 4.7 0 0 1 1.328-.547q.746-.192 1.541-.277a61 61 0 0 0 1.556-.177q.596-.085.866-.256.277-.177.277-.547v-.043q0-.803-.476-1.242-.476-.441-1.37-.441-.945 0-1.499.412-.547.412-.739.973l-2.4-.341q.284-.995.937-1.662.654-.675 1.598-1.008.945-.342 2.088-.341.789 0 1.57.185.782.184 1.427.61.647.42 1.037 1.144.399.724.398 1.811V276h-2.471v-1.499h-.086a3.1 3.1 0 0 1-.66.853 3.2 3.2 0 0 1-1.058.632q-.633.234-1.485.234m.668-1.889q.774 0 1.342-.305.568-.313.874-.824.312-.512.312-1.115v-1.286q-.12.1-.412.185a6 6 0 0 1-.639.149q-.355.064-.703.114l-.604.085a4.5 4.5 0 0 0-1.03.255 1.7 1.7 0 0 0-.717.498q-.263.312-.263.809 0 .71.519 1.073.518.362 1.321.362m13.125-9.24v1.989H331.4v-1.989zm-4.723-2.614h2.571v10.242q0 .518.156.795.163.27.426.37t.583.099q.241 0 .44-.036a4 4 0 0 0 .312-.063l.434 2.009q-.207.072-.59.157a5 5 0 0 1-.923.099q-.966.029-1.74-.291a2.7 2.7 0 0 1-1.229-1.009q-.447-.681-.44-1.704zm10.012 13.743q-1.037 0-1.868-.369a3.04 3.04 0 0 1-1.306-1.108q-.476-.732-.476-1.804 0-.924.341-1.527.34-.604.93-.966a4.7 4.7 0 0 1 1.328-.547q.746-.192 1.541-.277a61 61 0 0 0 1.556-.177q.596-.085.866-.256.277-.177.277-.547v-.043q0-.803-.476-1.242-.476-.441-1.37-.441-.945 0-1.499.412-.547.412-.739.973l-2.4-.341q.284-.995.937-1.662.654-.675 1.598-1.008.945-.342 2.088-.341.789 0 1.57.185.782.184 1.428.61.646.42 1.036 1.144.399.724.398 1.811V276h-2.471v-1.499h-.086a3.1 3.1 0 0 1-.66.853 3.2 3.2 0 0 1-1.058.632q-.633.234-1.485.234m.668-1.889q.774 0 1.342-.305.568-.313.874-.824.312-.512.312-1.115v-1.286q-.12.1-.412.185a6 6 0 0 1-.639.149q-.355.064-.703.114l-.604.085a4.5 4.5 0 0 0-1.03.255 1.7 1.7 0 0 0-.717.498q-.263.312-.263.809 0 .71.519 1.073.518.362 1.321.362m-95.528 14.76v1.989h-6.271v-1.989zm-4.723-2.614h2.572v10.242q0 .518.156.795.164.27.426.37.263.099.582.099.241 0 .441-.036a4 4 0 0 0 .312-.063l.433 2.009q-.205.072-.589.157a5 5 0 0 1-.923.099q-.966.029-1.74-.291a2.7 2.7 0 0 1-1.229-1.009q-.447-.681-.441-1.704zM250.251 300v-10.909h2.493v1.818h.113q.299-.945 1.023-1.456a2.8 2.8 0 0 1 1.669-.518q.213 0 .476.021.27.014.447.05v2.365a2.7 2.7 0 0 0-.518-.1 5 5 0 0 0-.675-.049q-.703 0-1.264.305a2.24 2.24 0 0 0-.874.831 2.34 2.34 0 0 0-.319 1.229V300zm14.883-4.588v-6.321h2.571V300h-2.493v-1.939h-.114a3.3 3.3 0 0 1-1.214 1.499q-.839.582-2.067.582-1.072 0-1.897-.476-.816-.483-1.278-1.399-.462-.923-.462-2.23v-6.946h2.571v6.548q0 1.037.569 1.648.568.61 1.491.611.568 0 1.101-.277.532-.278.874-.824.348-.554.348-1.385m7.785-9.957V300h-2.571v-14.545zm4.242 18.636q-.525 0-.973-.085a3.6 3.6 0 0 1-.703-.185l.597-2.003q.561.163 1.001.156.441-.007.774-.277.341-.262.576-.88l.22-.59-3.956-11.136h2.727l2.514 8.239h.114l2.521-8.239h2.735l-4.368 12.23a4.9 4.9 0 0 1-.81 1.484 3.3 3.3 0 0 1-1.236.952q-.724.334-1.733.334M292.048 300v-10.909h2.492v1.818h.114q.298-.945 1.023-1.456a2.8 2.8 0 0 1 1.669-.518q.213 0 .476.021.27.014.447.05v2.365a2.7 2.7 0 0 0-.518-.1 5 5 0 0 0-.675-.049q-.703 0-1.264.305-.555.299-.874.831a2.34 2.34 0 0 0-.319 1.229V300zm12.31.213q-1.641 0-2.834-.682a4.6 4.6 0 0 1-1.825-1.946q-.64-1.264-.64-2.976 0-1.683.64-2.954.646-1.278 1.803-1.989 1.158-.717 2.721-.717 1.008 0 1.903.327a4.3 4.3 0 0 1 1.591.994q.696.675 1.094 1.719.397 1.037.397 2.471v.789h-8.941v-1.733h6.477a2.76 2.76 0 0 0-.32-1.314 2.3 2.3 0 0 0-.873-.916q-.554-.334-1.293-.334-.788 0-1.385.383a2.64 2.64 0 0 0-.93.995 2.86 2.86 0 0 0-.334 1.342v1.513q0 .952.348 1.633.348.675.973 1.037.625.355 1.463.355.561 0 1.016-.156.455-.164.788-.476.335-.312.504-.774l2.401.27a3.75 3.75 0 0 1-.867 1.662q-.632.703-1.619 1.094-.987.383-2.258.383m10.165.007q-1.038 0-1.868-.369a3.05 3.05 0 0 1-1.307-1.108q-.476-.732-.476-1.804 0-.924.341-1.527.34-.604.93-.966a4.7 4.7 0 0 1 1.329-.547 11 11 0 0 1 1.541-.277 60 60 0 0 0 1.555-.177q.597-.085.867-.256.276-.177.277-.547v-.043q0-.803-.476-1.242-.476-.441-1.371-.441-.945 0-1.499.412-.546.412-.738.973l-2.401-.341q.284-.995.938-1.662.653-.675 1.598-1.008.945-.342 2.088-.341.788 0 1.569.185.781.184 1.428.61.647.42 1.037 1.144.398.724.398 1.811V300h-2.472v-1.499h-.085a3.1 3.1 0 0 1-.661.853 3.2 3.2 0 0 1-1.058.632q-.632.234-1.484.234m.667-1.889q.774 0 1.343-.305.568-.313.873-.824.313-.512.313-1.115v-1.286q-.121.1-.412.185a6 6 0 0 1-.639.149q-.356.064-.704.114l-.603.085a4.5 4.5 0 0 0-1.03.255 1.7 1.7 0 0 0-.717.498q-.263.312-.263.809 0 .71.518 1.073.519.362 1.321.362m11.726 1.861q-1.286 0-2.301-.661-1.015-.66-1.605-1.917t-.59-3.054q0-1.818.597-3.069.604-1.257 1.626-1.896a4.2 4.2 0 0 1 2.28-.646q.96 0 1.577.327.618.32.98.774.363.447.561.845h.107v-5.44h2.578V300h-2.529v-1.719h-.156a4.4 4.4 0 0 1-.575.845 3.2 3.2 0 0 1-.994.753q-.618.313-1.556.313m.718-2.11q.816 0 1.392-.44.575-.448.873-1.243t.298-1.854q0-1.057-.298-1.839-.291-.781-.866-1.215-.568-.433-1.399-.433-.86 0-1.435.448-.575.447-.867 1.235-.291.789-.291 1.804 0 1.023.291 1.826.298.795.874 1.257.582.454 1.428.454m9.43 6.009q-.526 0-.973-.085a3.6 3.6 0 0 1-.704-.185l.597-2.003q.561.163 1.001.156t.775-.277q.34-.262.575-.88l.22-.59-3.956-11.136h2.727l2.515 8.239h.113l2.521-8.239h2.735l-4.368 12.23a4.9 4.9 0 0 1-.81 1.484 3.3 3.3 0 0 1-1.235.952q-.725.334-1.733.334m-68.231 9v1.989h-6.449v-1.989zM263.996 324v-11.939q0-1.101.455-1.832.462-.732 1.236-1.094a4 4 0 0 1 1.718-.362q.668 0 1.186.106.52.106.767.192l-.511 1.989a4 4 0 0 0-.412-.1 2.5 2.5 0 0 0-.554-.057q-.718 0-1.015.348-.292.341-.292.981V324zm11.199.213q-1.599 0-2.77-.703a4.8 4.8 0 0 1-1.818-1.967q-.639-1.264-.639-2.955 0-1.69.639-2.962a4.77 4.77 0 0 1 1.818-1.974q1.171-.703 2.77-.703 1.597 0 2.77.703a4.7 4.7 0 0 1 1.811 1.974q.646 1.272.646 2.962t-.646 2.955a4.73 4.73 0 0 1-1.811 1.967q-1.173.703-2.77.703m.014-2.06q.867 0 1.449-.475.582-.483.866-1.293.291-.81.292-1.804 0-1.001-.292-1.811-.284-.817-.866-1.3t-1.449-.483q-.888 0-1.477.483-.583.483-.874 1.3a5.5 5.5 0 0 0-.284 1.811q0 .994.284 1.804.29.81.874 1.293.59.475 1.477.475m7.395 1.847v-10.909h2.493v1.818h.114q.299-.945 1.022-1.456a2.8 2.8 0 0 1 1.67-.518 6 6 0 0 1 .475.021 3 3 0 0 1 .448.05v2.365a2.7 2.7 0 0 0-.519-.1 5 5 0 0 0-.674-.049q-.704 0-1.265.305-.554.299-.873.831-.32.533-.32 1.229V324zm14.872 0h-2.812l5.121-14.545h3.252L308.165 324h-2.812l-3.885-11.562h-.114zm.093-5.703h7.67v2.116h-7.67zm15.147-8.842V324h-2.635v-14.545zm5.197 10.269v-.184q.007-1.286.242-2.046.241-.76.681-1.221a5.3 5.3 0 0 1 1.073-.86q.433-.27.774-.589.348-.327.547-.725.2-.404.199-.902 0-.56-.263-.973a1.8 1.8 0 0 0-.71-.639 2.1 2.1 0 0 0-.987-.227q-.505 0-.959.22-.448.213-.746.654-.291.432-.327 1.1h-2.528q.035-1.349.653-2.258a3.87 3.87 0 0 1 1.648-1.364q1.03-.454 2.273-.454 1.357 0 2.386.476 1.037.476 1.612 1.356.583.873.583 2.074 0 .81-.263 1.449-.255.64-.732 1.136a5.3 5.3 0 0 1-1.129.888 4.8 4.8 0 0 0-.944.739 2.4 2.4 0 0 0-.54.902q-.17.51-.178 1.264v.184zm1.236 4.432q-.639 0-1.101-.454a1.5 1.5 0 0 1-.462-1.108q0-.64.462-1.094a1.52 1.52 0 0 1 1.101-.455q.632 0 1.094.455.468.455.468 1.094 0 .433-.22.788a1.6 1.6 0 0 1-.568.568q-.348.207-.774.206"/><defs><clipPath id="c"><path fill="#fff" d="M374 96h36v36h-36z"/></clipPath><clipPath id="d"><path fill="#fff" d="M193 395h32v32h-32z"/></clipPath><clipPath id="e"><path fill="#fff" d="M189 92h38v38h-38z"/></clipPath><filter id="a" width="586" height="586" x="0" y="0" color-interpolation-filters="sRGB" filterUnits="userSpaceOnUse"><feFlood flood-opacity="0" result="BackgroundImageFix"/><feColorMatrix in="SourceAlpha" result="hardAlpha" values="0 0 0 0 0 0 0 0 0 0 0 0 0 0 0 0 0 0 127 0"/><feOffset/><feGaussianBlur stdDeviation="20"/><feComposite in2="hardAlpha" operator="out"/><feColorMatrix values="0 0 0 0 0 0 0 0 0 0 0 0 0 0 0 0 0 0 0.03 0"/><feBlend in2="BackgroundImageFix" result="effect1_dropShadow_3318_17820"/><feBlend in="SourceGraphic" in2="effect1_dropShadow_3318_17820" result="shape"/></filter><filter id="b" width="516.232" height="515.984" x="34.883" y="34.676" color-interpolation-filters="sRGB" filterUnits="userSpaceOnUse"><feFlood flood-opacity="0" result="BackgroundImageFix"/><feColorMatrix in="SourceAlpha" result="hardAlpha" values="0 0 0 0 0 0 0 0 0 0 0 0 0 0 0 0 0 0 127 0"/><feOffset/><feGaussianBlur stdDeviation="20"/><feComposite in2="hardAlpha" operator="out"/><feColorMatrix values="0 0 0 0 0.0586057 0 0 0 0 0.154029 0 0 0 0 0.203846 0 0 0 0.18 0"/><feBlend in2="BackgroundImageFix" result="effect1_dropShadow_3318_17820"/><feBlend in="SourceGraphic" in2="effect1_dropShadow_3318_17820" result="shape"/></filter><filter id="f" width="288" height="288" x="149" y="149" color-interpolation-filters="sRGB" filterUnits="userSpaceOnUse"><feFlood flood-opacity="0" result="BackgroundImageFix"/><feColorMatrix in="SourceAlpha" result="hardAlpha" values="0 0 0 0 0 0 0 0 0 0 0 0 0 0 0 0 0 0 127 0"/><feOffset/><feGaussianBlur stdDeviation="25"/><feComposite in2="hardAlpha" operator="out"/><feColorMatrix values="0 0 0 0 0.0174742 0 0 0 0 0.263325 0 0 0 0 0.673077 0 0 0 0.2 0"/><feBlend in2="BackgroundImageFix" result="effect1_dropShadow_3318_17820"/><feBlend in="SourceGraphic" in2="effect1_dropShadow_3318_17820" result="shape"/></filter></defs></svg>